<?xml version="1.0" encoding="UTF-8"?>
<!DOCTYPE svg PUBLIC "-//W3C//DTD SVG 1.1//EN" "http://www.w3.org/Graphics/SVG/1.1/DTD/svg11.dtd">
<!-- Creator: CorelDRAW 2017 -->
<svg xmlns="http://www.w3.org/2000/svg" xml:space="preserve" width="222px" height="163px" version="1.1" style="shape-rendering:geometricPrecision; text-rendering:geometricPrecision; image-rendering:optimizeQuality; fill-rule:evenodd; clip-rule:evenodd"
viewBox="0 0 20000000 14623000"
 xmlns:xlink="http://www.w3.org/1999/xlink">
 <defs>
  <style type="text/css">
   <![CDATA[
    .fil0 {fill:#9B8B21}
   ]]>
  </style>
 </defs>
 <g id="Capa_x0020_1">
  <metadata id="CorelCorpID_0Corel-Layer"/>
  <path class="fil0" d="M19981000 4986000l19000 -25000 -8000 34000c-47000,194000 -89000,389000 -133000,586000 -44000,196000 -86000,393000 -132000,590000l-12000 59000 -53000 219000c-22000,102000 -44000,202000 -68000,306000 -22000,88000 -42000,177000 -62000,269000l-71000 316000 -139000 582000 -5000 24000 -9000 58000 -50000 210000 -22000 49000 -11000 52000c-12000,62000 -27000,124000 -42000,186000l-63000 257000 -63000 219000 -21000 97000 -37000 152000 -60000 199000 -59000 211000c-54000,192000 -109000,378000 -162000,557000 -59000,192000 -117000,375000 -172000,548000l-86000 261000 -96000 278000c-68000,195000 -132000,372000 -192000,527000 -42000,112000 -80000,210000 -117000,296000 -31000,82000 -62000,157000 -88000,217000l-40000 90000 -47000 109000 7000 -118000c0,-44000 0,-97000 4000,-157000 2000,-51000 7000,-108000 16000,-170000 9000,-139000 20000,-305000 39000,-493000 16000,-195000 38000,-415000 65000,-652000l4000 -25000c24000,-192000 51000,-397000 84000,-607000 29000,-200000 62000,-409000 97000,-620000l67000 -402000 40000 -199000 0 -13000 0 -16000 -3000 13000 -6000 16000 -49000 60000 -58000 60000 -41000 21000 19000 -11000 22000 -30000 27000 -60000 22000 -49000 0 -9000 0 -61000 0 -60000 -9000 -40000 0 -20000 -22000 20000 -18000 31000 -8000 13000 -23000 36000 -17000 61000 0 9000 0 60000 0 49000 7000 50000 0 11000 -21000 -31000 -28000 -79000 -13000 -60000 -9000 -50000 9000 -120000 8000 -24000 33000 -95000 62000 -89000 67000 -59000 31000 -18000 18000 29000 41000 81000 9000 87000 40000 -197000 13000 -20000 -13000 0 -9000 0 22000 -40000 0 -9000 0 -61000 -31000 10000 -31000 20000 -19000 11000 -9000 9000 -13000 0 0 11000 -11000 9000c-82000,100000 -162000,193000 -239000,283000l-182000 212000 -84000 100000 -68000 77000c-120000,135000 -235000,261000 -343000,376000 -130000,142000 -248000,268000 -347000,374000l-37000 37000c-98000,98000 -175000,177000 -224000,226000l-89000 80000 -2000 20000c0,0 -8000,-49000 -41000,-138000 -29000,-90000 -65000,-229000 -120000,-397000 -37000,-131000 -75000,-286000 -119000,-454000l-38000 -152000c-69000,-242000 -133000,-518000 -203000,-808000l-3000 -15000 -19000 -80000 -32000 -137000c-31000,-130000 -57000,-271000 -88000,-417000l-33000 -138000 -27000 -132000 -121000 -584000c-24000,-104000 -47000,-212000 -67000,-320000 -15000,-78000 -28000,-158000 -39000,-237000l-24000 -88000c-29000,-158000 -56000,-319000 -87000,-476000l-2000 -20000 -9000 -57000 -79000 -460000 -9000 0 -9000 0 -13000 2000 -120000 230000c-68000,131000 -135000,259000 -206000,385000l-42000 86000c-59000,117000 -119000,228000 -178000,340000l-73000 129000 -74000 130000 -185000 330000c-89000,159000 -177000,313000 -263000,460000l-18000 33000c-86000,146000 -166000,285000 -246000,422000 -61000,102000 -121000,203000 -183000,301000 -26000,50000 -57000,99000 -86000,148000 -25000,40000 -49000,81000 -71000,121000l-203000 328000 -75000 117000c-73000,117000 -140000,225000 -204000,322000 -49000,78000 -99000,149000 -142000,215000 -57000,84000 -108000,155000 -150000,217000 -31000,46000 -59000,86000 -79000,121000l-89000 128000c0,0 22000,-52000 47000,-148000l57000 -166000 75000 -223000 49000 -128000c16000,-57000 40000,-119000 64000,-183000 29000,-82000 62000,-169000 93000,-263000l100000 -261000c64000,-160000 134000,-332000 209000,-514000l11000 -28000 58000 -159000c48000,-106000 91000,-215000 137000,-325000 60000,-151000 122000,-306000 190000,-460000l20000 -49000c71000,-166000 146000,-332000 221000,-500000l47000 -104000c50000,-110000 92000,-210000 139000,-318000l35000 -75000c38000,-82000 76000,-159000 115000,-243000 36000,-84000 73000,-166000 113000,-250000 75000,-162000 153000,-325000 228000,-491000l4000 -13000 232000 -473000 237000 -480000 57000 -119000 182000 -365000 236000 -482000 120000 -244000 28000 -50000 76000 517000 126000 842000c42000,281000 84000,562000 121000,840000l5000 43000 9000 90000c21000,120000 41000,237000 50000,347000l22000 188000 18000 111000 5000 46000c17000,133000 28000,265000 44000,398000l20000 131000c9000,97000 20000,192000 31000,287000 11000,86000 20000,172000 29000,257000 13000,187000 32000,362000 50000,535000l22000 230000 7000 128000c9000,141000 24000,267000 33000,407000l2000 19000 7000 100000 7000 110000c13000,193000 28000,381000 37000,558000 5000,95000 11000,188000 14000,276000 6000,179000 15000,338000 22000,478000l8000 155000c0,179000 2000,327000 2000,417000l0 129000 47000 -98000c29000,-70000 82000,-179000 148000,-298000l33000 -67000c67000,-139000 148000,-300000 244000,-479000 57000,-102000 117000,-213000 183000,-328000l69000 -137000 17000 -31000c76000,-134000 162000,-278000 250000,-424000l146000 -241000 71000 -109000 59000 -88000 1000 -4000c59000,-87000 119000,-186000 192000,-285000l48000 -80000 43000 -73000 4000 -5000c95000,-137000 190000,-280000 285000,-426000l192000 -288000 18000 -20000 80000 -123000c93000,-140000 190000,-285000 290000,-429000l106000 -153000 187000 -274000 294000 -429000 94000 -141000 201000 -281000zm-10001000 -4904000l20000 -82000 31000 133000c73000,311000 151000,628000 230000,944000 69000,287000 139000,572000 204000,849000l28000 101000c87000,345000 171000,668000 244000,960000l26000 110000c84000,299000 162000,589000 241000,876000l47000 164000c41000,159000 83000,307000 119000,457000l108000 367000c93000,316000 184000,620000 272000,922000l27000 93000 29000 97000c70000,228000 145000,445000 209000,653000 27000,101000 54000,197000 85000,290000 24000,75000 48000,147000 73000,216000 30000,100000 63000,199000 90000,297000 60000,179000 111000,347000 168000,506000l13000 39000c45000,144000 93000,281000 127000,409000 79000,228000 150000,434000 210000,613000l8000 31000 5000 15000c37000,113000 68000,206000 99000,290000l55000 192000c40000,118000 60000,186000 60000,188000 0,0 -28000,-61000 -99000,-168000l-82000 -150000c-47000,-69000 -97000,-159000 -153000,-268000l-33000 -70000c-68000,-111000 -135000,-235000 -207000,-370000l-72000 -135000c-59000,-119000 -126000,-249000 -198000,-388000 -129000,-257000 -268000,-555000 -416000,-861000l-15000 -33000c-155000,-358000 -325000,-754000 -489000,-1169000l-29000 -64000 -4000 -5000c-80000,-208000 -168000,-427000 -248000,-645000 -59000,-147000 -108000,-299000 -155000,-449000l-18000 -42000 -75000 -193000c-101000,-285000 -196000,-583000 -289000,-886000 -64000,-204000 -126000,-409000 -186000,-611000 -49000,-159000 -40000,-90000 -40000,-101000 0,11000 14000,-58000 -40000,101000l-81000 268000c-54000,184000 -109000,369000 -166000,550000 -58000,184000 -119000,367000 -179000,544000l-47000 135000 -93000 239000 -52000 153000c-31000,97000 -65000,196000 -105000,292000 -30000,79000 -59000,157000 -90000,234000 -53000,137000 -108000,270000 -155000,409000l-35000 71000 -12000 35000c-70000,175000 -141000,345000 -212000,511000l-218000 501000 -63000 144000 -165000 349000 -234000 485000 -18000 38000c-69000,139000 -138000,269000 -197000,388000l-27000 51000c-88000,168000 -166000,317000 -249000,454000l-5000 13000 -28000 57000c-60000,100000 -105000,188000 -158000,268000l-73000 133000 -2000 4000 -4000 2000c-69000,109000 -100000,168000 -100000,170000 0,0 22000,-62000 62000,-192000l7000 -20000 51000 -166000c29000,-79000 59000,-190000 99000,-298000l9000 -29000 16000 -49000c53000,-159000 114000,-342000 183000,-539000l9000 -27000c40000,-150000 91000,-300000 139000,-457000l24000 -62000c49000,-140000 96000,-287000 146000,-435000l31000 -105000 58000 -192000c35000,-111000 77000,-234000 115000,-356000 15000,-51000 29000,-101000 44000,-150000 42000,-128000 86000,-261000 130000,-396000 25000,-84000 53000,-172000 78000,-257000l59000 -199000 29000 -99000c53000,-181000 109000,-365000 164000,-555000 53000,-184000 106000,-373000 157000,-562000l16000 -64000c50000,-148000 92000,-300000 130000,-457000l11000 -40000c55000,-186000 106000,-374000 159000,-564000l119000 -436000 33000 -130000 144000 -573000 118000 -468000 26000 -109000 141000 -577000 140000 -581000 141000 -577000zm5276000 5956000l60000 -95000 81000 -90000 14000 -9000 17000 -20000 9000 9000 9000 28000 22000 122000 0 157000 -16000 91000 -15000 68000 0 20000 -59000 159000 -78000 139000 -82000 89000 -7000 6000 -33000 25000 22000 -11000 7000 -16000 20000 -44000 31000 -69000 33000 -90000 16000 -89000 9000 -90000 0 -58000 0 -20000 -16000 20000 -33000 49000 -18000 40000 -22000 29000 -27000 90000 -22000 89000 0 90000 0 24000 0 36000 0 20000 -9000 -40000 -6000 -33000 -20000 -88000 0 -158000 9000 -30000 17000 -149000 58000 -159000 29000 -42000zm2564000 3264000l224000 33000c119000,84000 150000,210000 128000,316000 -11000,46000 -31000,88000 -57000,121000 -91000,100000 -197000,87000 -257000,69000l-60000 -40000 -17000 -11000 77000 0 128000 -108000 -9000 -78000 -59000 -50000 -140000 59000c-41000,60000 -50000,148000 -41000,248000 4000,31000 10000,62000 15000,91000 15000,70000 35000,137000 46000,207000 18000,89000 42000,166000 42000,228000l9000 88000 -9000 -48000 -33000 -119000 -48000 -160000 -67000 -188000 -20000 -86000 -20000 -93000 0 -159000 40000 -101000 18000 -36000 -40000 18000 -68000 108000 -34000 159000 -6000 20000 40000 199000 77000 190000 80000 146000 57000 109000 33000 41000 -59000 -68000 -142000 -188000c-49000,-80000 -108000,-179000 -148000,-309000 -22000,-67000 -35000,-149000 -25000,-233000 5000,-73000 29000,-150000 74000,-223000l218000 -159000 53000 7000zm-2449000 -2430000c35000,-9000 71000,-11000 106000,-9000l148000 53000 89000 79000c68000,69000 103000,157000 99000,257000 0,20000 -2000,38000 -4000,55000 -5000,67000 -23000,129000 -54000,193000l-99000 139000 -42000 29000c-29000,29000 -58000,55000 -86000,77000 -67000,51000 -133000,86000 -190000,120000l-7000 11000 -172000 119000 -51000 51000 -20000 18000 17000 -20000 16000 -20000 88000 -89000 33000 -29000 96000 -81000 141000 -129000 7000 -9000 40000 -28000 99000 -130000 71000 -178000 -9000 -130000 -22000 -38000 0 38000 -27000 120000 -81000 139000 -129000 139000 -13000 13000 -77000 76000 -56000 48000 -123000 140000 -16000 39000 -40000 80000 -6000 20000 -1000 0 -8000 29000 8000 -29000 1000 0 15000 -69000 9000 -31000 106000 -186000 22000 -21000 120000 -140000 68000 -79000 99000 -248000 -28000 -109000 -71000 -50000 -68000 0 -62000 61000 62000 138000 59000 9000 31000 0 -90000 41000 -127000 -30000 -90000 -158000 26000 -130000 49000 -79000c36000,-42000 89000,-69000 144000,-82000zm-664000 57000c45000,-9000 96000,-9000 146000,3000l138000 81000 41000 60000 16000 58000 -15000 123000 -11000 97000 -147000 118000 -94000 -18000 -36000 -60000 18000 -81000 0 0 31000 -9000 -22000 30000 9000 -10000 13000 39000 28000 11000 22000 -11000 31000 -59000 -22000 -100000 -50000 -29000 -58000 29000 -33000 82000c0,79000 51000,168000 119000,257000 49000,79000 120000,168000 160000,256000l22000 49000 28000 130000 -2000 4000 -17000 135000 -40000 69000 -22000 11000 31000 -40000 31000 -130000 -9000 -49000 -14000 -37000 -39000 -102000 -9000 -18000 -117000 -150000 -129000 -159000 -90000 -138000 -22000 -119000 0 -20000 0 -31000 -18000 31000 0 20000 -7000 128000 66000 179000 56000 73000 73000 96000 99000 117000 31000 31000 58000 128000 9000 31000 13000 119000 -13000 40000 0 -89000 -27000 -101000 -58000 -78000 -62000 -68000 -170000 -159000 -139000 -170000 -26000 -107000 -32000 -132000 -2000 -18000c0,-89000 34000,-199000 118000,-268000 42000,-37000 92000,-62000 145000,-75000zm2906000 3604000c73000,49000 135000,111000 185000,184000 34000,53000 62000,114000 78000,176000 40000,169000 4000,337000 -89000,476000l-24000 31000c-91000,110000 -226000,175000 -352000,168000 -150000,0 -254000,-91000 -309000,-190000 -49000,-107000 -18000,-208000 31000,-268000l130000 -88000 49000 -11000 -49000 20000 -90000 110000 19000 186000 209000 80000 218000 -147000 0 -2000c40000,-90000 49000,-208000 20000,-305000 -31000,-99000 -117000,-181000 -219000,-219000 -99000,-39000 -207000,-40000 -307000,20000 -109000,49000 -190000,139000 -239000,248000 -22000,60000 -35000,128000 -38000,194000 -2000,53000 0,104000 9000,153000 29000,248000 182000,456000 337000,595000 148000,159000 309000,256000 417000,338000 98000,60000 168000,108000 168000,108000l-99000 -59000c-60000,-29000 -146000,-78000 -248000,-148000 -99000,-60000 -207000,-149000 -318000,-248000 -98000,-100000 -195000,-219000 -266000,-358000 -72000,-139000 -99000,-297000 -81000,-436000l2000 -22000c15000,-131000 64000,-252000 128000,-334000 44000,-51000 89000,-93000 133000,-122000 35000,-24000 68000,-41000 99000,-50000l96000 -38000 -111000 20000c-31000,9000 -67000,22000 -108000,42000 -47000,24000 -98000,58000 -149000,108000 -73000,73000 -132000,177000 -163000,299000 -7000,28000 -13000,57000 -16000,88000 -19000,159000 13000,334000 80000,485000 79000,148000 192000,278000 307000,376000 109000,110000 241000,179000 347000,240000 100000,58000 202000,96000 270000,117000l97000 42000c0,0 -66000,-22000 -198000,-61000 -118000,-49000 -297000,-118000 -496000,-257000 -188000,-139000 -394000,-358000 -477000,-676000 -25000,-137000 -25000,-283000 11000,-429000 6000,-22000 13000,-44000 20000,-65000 50000,-141000 148000,-269000 278000,-355000 25000,-16000 53000,-31000 82000,-45000l-4000 2000c81000,-39000 181000,-72000 269000,-70000 98000,-9000 199000,11000 277000,49000 29000,15000 57000,31000 84000,48000zm-1678000 -1663000c10000,-50000 11000,-92000 11000,-119000l-23000 -90000 0 90000 -26000 78000 -44000 130000c-40000,69000 -107000,157000 -208000,217000 -25000,17000 -51000,31000 -77000,46000 -73000,36000 -155000,69000 -241000,113000 -84000,29000 -168000,71000 -242000,123000 -31000,20000 -61000,43000 -86000,67000 -90000,88000 -155000,175000 -196000,265000l-40000 69000 -49000 141000 -13000 89000c0,0 4000,-60000 22000,-159000l18000 -49000 11000 -33000c33000,-93000 93000,-208000 188000,-314000 31000,-36000 70000,-73000 112000,-109000 38000,-31000 80000,-62000 126000,-90000 89000,-49000 191000,-100000 281000,-149000l-4000 1000 50000 -29000c69000,-40000 131000,-84000 182000,-140000l108000 -240000 -22000 -71000 -46000 -155000 -179000 -100000 -23000 9000 -187000 71000 -22000 7000 -89000 179000 13000 177000 2000 13000 105000 110000 15000 0 133000 -11000 -36000 31000 -60000 14000 -61000 15000 -189000 -99000c-55000,-64000 -83000,-146000 -79000,-243000l2000 -23000 0 -53000 80000 -216000 26000 -49000c38000,-44000 93000,-86000 153000,-117000 62000,-31000 133000,-53000 205000,-53000l178000 20000 179000 110000 50000 40000c87000,119000 142000,277000 118000,425000 -3000,53000 -14000,104000 -31000,152000 -33000,89000 -84000,170000 -148000,235000 -52000,66000 -120000,114000 -188000,152000 -45000,26000 -89000,46000 -129000,68000 -110000,40000 -208000,69000 -298000,105000l-73000 44000 -146000 86000 -115000 110000 -122000 146000 -39000 43000 -67000 139000 27000 -80000 64000 -115000 48000 -84000 9000 -9000 206000 -208000c31000,-22000 62000,-46000 95000,-66000 66000,-42000 135000,-80000 214000,-111000 85000,-41000 180000,-81000 264000,-130000 22000,-13000 42000,-26000 62000,-40000 99000,-79000 172000,-179000 209000,-267000 16000,-38000 27000,-77000 32000,-109000zm48000 763000c144000,69000 259000,188000 327000,325000 16000,31000 29000,60000 38000,91000 91000,199000 62000,435000 -40000,606000l-6000 11000c-96000,161000 -230000,274000 -354000,371000l-5000 5000c-139000,90000 -278000,159000 -407000,208000l-70000 24000c-237000,79000 -440000,93000 -586000,95000l-44000 0c-139000,-2000 -211000,-9000 -211000,-9000l136000 0c20000,2000 44000,4000 70000,4000 76000,0 177000,-9000 277000,-24000 103000,-20000 216000,-51000 331000,-93000 51000,-20000 104000,-42000 155000,-66000 100000,-51000 210000,-113000 310000,-188000 61000,-42000 115000,-89000 167000,-139000 69000,-69000 131000,-153000 175000,-244000 44000,-92000 69000,-192000 62000,-293000 0,-188000 -86000,-357000 -206000,-465000 -112000,-101000 -236000,-141000 -316000,-152000l-99000 0 -40000 0 40000 0 95000 22000c80000,20000 192000,68000 289000,170000 89000,99000 160000,256000 158000,425000 0,77000 -20000,152000 -53000,225000 -40000,88000 -102000,170000 -175000,243000 -49000,53000 -104000,100000 -161000,144000 -91000,68000 -188000,122000 -286000,172000 -59000,34000 -117000,62000 -176000,86000 -96000,38000 -191000,67000 -279000,93000 -117000,32000 -217000,53000 -294000,58000l-42000 2000 -140000 20000c0,0 69000,-9000 177000,-27000l71000 -13000c122000,-26000 298000,-71000 482000,-159000 37000,-18000 75000,-38000 113000,-60000 113000,-57000 228000,-132000 331000,-216000l16000 -13000c110000,-87000 217000,-199000 278000,-326000 9000,-20000 18000,-42000 25000,-64000 37000,-112000 35000,-228000 -14000,-343000 -52000,-128000 -156000,-240000 -289000,-278000 -99000,-29000 -212000,-26000 -314000,9000 -33000,9000 -64000,24000 -93000,40000 -119000,70000 -197000,188000 -217000,318000 -4000,16000 -6000,33000 -6000,49000 -3000,112000 39000,216000 124000,278000 68000,62000 161000,93000 239000,82000 26000,-4000 48000,-11000 68000,-22000 100000,-49000 163000,-140000 141000,-228000l-161000 -159000c-148000,-40000 -237000,29000 -237000,20000l21000 -11000 41000 -29000 188000 -29000 129000 38000 117000 141000 -9000 217000 -148000 179000 -25000 7000 -225000 53000c-100000,0 -188000,-31000 -268000,-89000 -70000,-50000 -137000,-132000 -188000,-219000 -41000,-99000 -57000,-198000 -50000,-307000 4000,-44000 15000,-90000 30000,-133000 18000,-53000 43000,-106000 69000,-156000 60000,-98000 139000,-179000 228000,-228000l27000 -16000c183000,-104000 404000,-130000 612000,-62000 28000,7000 53000,18000 77000,29000zm-1627000 -1616000l40000 -2000 39000 2000c98000,9000 180000,38000 248000,88000l108000 100000c80000,90000 118000,217000 111000,327000l-2000 27000 0 2000c-20000,121000 -97000,237000 -217000,268000 -101000,41000 -205000,19000 -268000,-51000l-10000 0 -40000 -197000 73000 -89000 40000 -20000 -63000 120000 63000 110000 57000 9000 90000 -22000 27000 -38000c49000,-70000 53000,-209000 -37000,-289000l-191000 -78000 -179000 78000 -66000 190000 4000 11000 95000 206000 38000 59000 122000 169000 8000 21000 116000 259000c50000,159000 63000,305000 50000,405000l0 28000c-4000,72000 -19000,120000 -19000,120000l13000 -79000 -2000 -51000 -12000 -166000c-10000,-89000 -39000,-190000 -79000,-288000l-124000 -219000 -64000 -79000 -66000 -89000 -129000 -177000 -33000 -205000 -7000 -55000 18000 -49000 80000 -130000 57000 -49000 -66000 40000 -139000 168000 -3000 11000 0 4000c-41000,88000 -37000,204000 12000,301000l121000 190000 89000 99000 50000 69000 126000 201000c49000,98000 78000,188000 109000,265000l24000 124000 16000 85000 8000 81000c0,0 -8000,-62000 -30000,-150000l-11000 -33000c-27000,-86000 -65000,-201000 -136000,-314000l-137000 -199000 -19000 -29000 -151000 -159000 -22000 -29000c-70000,-79000 -144000,-190000 -166000,-338000l-13000 -98000c5000,-53000 20000,-105000 42000,-154000 24000,-53000 58000,-104000 100000,-146000l8000 -18000c80000,-80000 186000,-135000 299000,-148000zm3051000 3746000l53000 -38000 80000 -40000 81000 -38000 89000 -31000 80000 -20000 41000 -10000 -24000 10000 -26000 20000 -53000 31000 -36000 38000 -40000 40000 -41000 40000 -21000 40000 -10000 10000 22000 0 40000 0 59000 -21000 58000 -40000 39000 -49000 18000 -58000 15000 -41000 0 -20000 9000 41000 0 89000 -59000 119000 -120000 98000 -68000 15000 -71000 16000 -130000 -31000 -80000 -58000 -18000 -31000 27000 -20000 71000 -50000 15000 -11000zm-7522000 -7469000l47000 -179000 28000 -67000 31000 67000 9000 40000 14000 -40000 26000 -67000 31000 67000 49000 179000c19000,71000 31000,159000 39000,250000l1000 24000c10000,84000 19000,174000 19000,263000 0,100000 0,199000 -11000,289000 -11000,51000 -18000,104000 -26000,151000 -5000,35000 -13000,66000 -22000,95000l-49000 179000 -31000 60000 9000 -29000 22000 -100000 9000 -130000 7000 -130000 2000 -29000 -9000 -150000 -9000 -137000 -22000 -89000 -9000 -40000 -9000 40000 -17000 89000 -14000 130000 -9000 -130000 -19000 -89000 -12000 -40000 -9000 40000 -19000 89000 -9000 137000 0 17000 -13000 133000 13000 159000 9000 130000 19000 100000 9000 29000 -28000 -60000 -51000 -177000c-20000,-81000 -36000,-161000 -49000,-248000 -7000,-53000 -9000,-108000 -11000,-167000l0 -122000c0,-99000 0,-199000 11000,-287000 9000,-89000 29000,-180000 51000,-250000l2000 0zm7904000 8569000c3000,-42000 7000,-81000 9000,-115000l18000 -139000 15000 -60000 -152000 -19000 -276000 -49000 -221000 -40000 -642000 -102000c-258000,-39000 -543000,-83000 -855000,-128000l-288000 -39000 -259000 -29000 -280000 -36000c-213000,-28000 -434000,-53000 -663000,-73000l-155000 -19000c-259000,-29000 -526000,-54000 -799000,-74000l-353000 -26000 -11000 0c-137000,-15000 -277000,-24000 -416000,-31000 -164000,-11000 -331000,-18000 -497000,-29000l-272000 -17000 -224000 -12000c-177000,-8000 -351000,-10000 -524000,-13000l-230000 -8000c-170000,0 -340000,-5000 -512000,-9000l-202000 0c-172000,0 -342000,4000 -511000,8000l-194000 1000c-175000,8000 -345000,10000 -517000,13000 -82000,2000 -164000,4000 -246000,8000 -152000,9000 -292000,16000 -442000,25000l-55000 4000c-213000,7000 -425000,18000 -635000,31000l-278000 18000c-118000,-217000 -248000,-438000 -396000,-633000l46000 -10000c91000,-14000 181000,-25000 272000,-42000 119000,-16000 243000,-31000 367000,-42000l277000 -25000 377000 -42000c144000,-15000 286000,-28000 427000,-38000 85000,-6000 166000,-8000 248000,-11000 73000,-2000 144000,-6000 217000,-10000l479000 -16000 399000 -13000 165000 0 148000 0 20000 0c246000,7000 487000,15000 726000,24000l146000 5000c159000,11000 313000,10000 468000,21000l146000 12000c219000,19000 440000,42000 657000,68000l152000 14000c168000,19000 334000,42000 493000,64000 107000,11000 210000,30000 317000,50000l31000 5000c302000,44000 596000,95000 879000,152000 325000,64000 635000,133000 927000,204000 128000,31000 254000,62000 374000,95000 223000,60000 433000,122000 630000,181000 438000,133000 809000,259000 1094000,369000l13000 5000c199000,80000 359000,148000 471000,188000l139000 60000 0 -11000 0 11000 27000 19000 -27000 -9000 9000 60000 7000 139000 13000 186000 27000 420000c0,104000 7000,215000 18000,341000l4000 55000 0 119000 -2000 158000c8000,125000 11000,256000 9000,400000l0 17000c-80000,11000 -175000,9000 -295000,20000l-198000 9000 -162000 11000 -7000 0c-207000,11000 -440000,20000 -683000,29000l-15000 0c-221000,9000 -451000,24000 -688000,35000l-115000 5000c-108000,0 -227000,0 -347000,11000l-239000 6000c-194000,5000 -391000,7000 -594000,12000l-113000 4000c-232000,7000 -465000,13000 -706000,15000l-252000 2000c-110000,0 -225000,9000 -338000,10000l-124000 0c-236000,0 -470000,0 -709000,10000l-3000 0 -543000 0 -182000 0 -106000 0c-205000,0 -411000,0 -617000,-2000 -164000,-2000 -331000,-4000 -493000,-8000l-241000 -1000 -146000 1000c-130000,0 -254000,-1000 -387000,0l-185000 4000c-239000,4000 -476000,6000 -715000,6000l-201000 0c-101000,0 -196000,0 -289000,0 -82000,0 -160000,-2000 -241000,-4000 -104000,-4000 -206000,-7000 -314000,-6000l-414000 -1000c-139000,-2000 -278000,-4000 -418000,-9000l-316000 0 -22000 0 -719000 -21000 -353000 -9000c-131000,0 -261000,-1000 -389000,-5000l-445000 -15000c-102000,-9000 -199000,-11000 -301000,-11000l-44000 2000c-249000,-9000 -488000,-27000 -716000,-36000l-84000 -4000 -15000 0c-138000,-6000 -542000,-120000 -870000,-241000 -258000,-95000 -468000,-194000 -468000,-245000l0 -159000 4000 -56000 5000 -62000c0,-159000 13000,-280000 20000,-398000l10000 -225000c7000,-155000 14000,-285000 23000,-381000l9000 -139000 9000 -59000 -31000 0 31000 -11000 0 -9000 0 9000 63000 -25000 74000 -33000c103000,-36000 254000,-102000 437000,-175000l29000 -13000c146000,-55000 314000,-117000 502000,-181000 166000,-56000 349000,-115000 544000,-175000 177000,-53000 364000,-110000 561000,-164000l129000 -35000c145000,-38000 292000,-75000 446000,-111000 190000,-46000 389000,-90000 593000,-132000 196000,-40000 396000,-80000 603000,-117000 186000,-34000 378000,-67000 571000,-96000 148000,197000 280000,414000 400000,633000l-13000 0 -381000 35000 -661000 60000 -269000 26000c-131000,16000 -261000,29000 -389000,43000 -188000,21000 -372000,41000 -551000,64000l-91000 15000 -168000 25000c-163000,21000 -320000,41000 -469000,61000 -227000,31000 -439000,60000 -632000,89000 -234000,37000 -444000,70000 -626000,101000l-59000 9000c-208000,38000 -374000,67000 -495000,76000l-65000 15000 -83000 16000 10000 59000 18000 140000c9000,123000 36000,289000 60000,510000l9000 95000c11000,109000 33000,237000 42000,387000l37000 323000 11000 93000 75000 -9000 78000 -9000 75000 -13000 15000 0 16000 0 40000 -7000 79000 0c111000,-11000 233000,-20000 361000,-29000 108000,-8000 221000,-15000 334000,-24000l117000 -7000 228000 -13000 309000 -17000c119000,-9000 248000,-12000 378000,-18000l29000 -2000c214000,-14000 436000,-25000 663000,-33000l259000 -7000c143000,-7000 287000,-15000 433000,-20000 210000,-9000 422000,-18000 637000,-29000l58000 0c79000,0 154000,-2000 230000,-9000 156000,0 315000,-4000 475000,-9000l418000 -11000c93000,-6000 190000,-10000 287000,-10000 88000,-1000 173000,-1000 259000,-1000 99000,-10000 192000,-10000 278000,-10000l169000 -3000c236000,-6000 473000,-8000 711000,-11000l290000 -6000c110000,0 230000,0 338000,0l93000 0 243000 0 489000 11000c228000,6000 455000,9000 683000,9000l57000 6000c71000,4000 144000,4000 220000,4000 168000,0 347000,7000 515000,9000l31000 2000c247000,7000 486000,14000 718000,21000l175000 8000c99000,0 192000,9000 289000,11000l284000 9000c256000,9000 506000,22000 753000,29000l32000 0c251000,17000 493000,24000 729000,38000l194000 11000c140000,11000 281000,11000 407000,20000l164000 10000 374000 18000 117000 13000c97000,7000 192000,14000 285000,20000 144000,7000 283000,16000 411000,27000l80000 13000 40000 0 18000 0 10000 0 80000 7000 151000 29000 0 -7000 28000 -190000 0 -38000 9000 -70000 9000 -118000c6000,-86000 15000,-166000 24000,-238000 5000,-54000 13000,-104000 16000,-149000 22000,-196000 46000,-362000 61000,-491000zm-1499000 -1487000l21000 -27000 28000 47000 33000 61000 16000 29000 80000 110000 90000 109000 89000 110000 90000 89000 89000 80000 31000 30000 -18000 -9000 -55000 -32000 -65000 -40000 -81000 -38000 -67000 -40000 -71000 -40000 -50000 -30000 -22000 -20000 0 29000 31000 50000 50000 71000 89000 58000 90000 41000 87000 9000 64000 0 18000 -9000 -40000 20000 -129000 20000 -179000 -40000 -170000 -130000 -99000 -188000 0 -179000 40000 -128000 10000 -13000zm-262000 -261000l92000 -43000 151000 -70000 59000 -20000 -19000 58000 -80000 150000 -62000 66000 -108000 111000 -235000 139000 -99000 26000 -170000 43000 -241000 0 -164000 -49000 -64000 -29000 33000 9000 88000 20000 122000 11000 137000 -20000 139000 -40000 44000 -20000 63000 -28000 81000 -49000 22000 -20000 -31000 0 -90000 20000 -106000 16000 -5000 0 -126000 33000 -143000 19000 -107000 18000 -88000 20000 -33000 11000 64000 -31000 148000 -49000 195000 -77000 26000 -11000c84000,-33000 141000,-53000 193000,-79000 59000,-20000 121000,-49000 218000,-89000l96000 -46000zm-5484000 -5444000l73000 13000 89000 60000 48000 40000c62000,64000 108000,139000 128000,221000 5000,22000 9000,44000 11000,68000l0 96000 -9000 50000 -50000 140000 -146000 172000 -24000 27000 -188000 90000c-109000,40000 -186000,78000 -235000,127000l-11000 21000 -39000 67000 19000 -56000 14000 -19000 75000 -91000 186000 -100000 154000 -115000 58000 -44000 97000 -208000 9000 -30000 0 -11000 -49000 -226000 -66000 -80000 -49000 -30000 -22000 -20000 -31000 -9000 31000 29000 7000 8000 55000 73000 27000 56000 8000 190000 -8000 39000 -9000 20000 -73000 138000 -47000 41000 -130000 109000 -179000 130000 -60000 117000 -17000 33000 0 56000 -12000 -27000 18000 -73000 4000 -17000 67000 -118000 128000 -119000c55000,-38000 104000,-80000 144000,-126000 33000,-38000 59000,-79000 77000,-124000l7000 -59000 -7000 -120000 -58000 -110000 -112000 -47000 -117000 40000 -51000 161000 -20000 65000 49000 50000 88000 0 33000 0 56000 -79000 -20000 121000 -12000 14000c-31000,39000 -88000,81000 -185000,64000l-129000 -69000c-61000,-59000 -99000,-141000 -99000,-238000 0,-47000 11000,-93000 29000,-136000 22000,-50000 53000,-95000 90000,-132000 69000,-69000 171000,-130000 288000,-130000l97000 17000zm6436000 7106000c49000,-19000 106000,-26000 162000,-19000 188000,30000 318000,198000 291000,388000l-22000 60000 -20000 58000c-70000,110000 -209000,177000 -347000,157000l-159000 -78000c-90000,-70000 -139000,-177000 -130000,-298000 20000,-129000 110000,-228000 225000,-268000zm-2264000 -2250000l-2000 -3000 -22000 -49000 -9000 -19000 31000 40000 58000 79000 22000 33000 50000 65000 58000 110000 71000 119000 49000 109000 41000 90000 16000 40000 -47000 9000 -108000 -20000 -143000 -69000 -116000 -139000 -59000 -168000 9000 -161000 50000 -97000 5000 -12000 13000 -28000 -9000 19000 -2000 10000 -7000 39000 -9000 80000 9000 90000 40000 78000 40000 60000 36000 40000 22000 10000 0 -20000 -9000 -59000 -13000 -60000 -18000 -79000 -31000 -71000 -16000 -66000zm-515000 -511000c4000,-44000 4000,-89000 -6000,-135000 -20000,-130000 -87000,-250000 -199000,-298000 -78000,-40000 -175000,-54000 -272000,-38000 -23000,4000 -49000,9000 -73000,17000l-22000 12000c-116000,39000 -204000,126000 -262000,247000l-15000 20000 -17000 38000c-43000,112000 -47000,243000 -32000,360000 31000,237000 169000,434000 330000,593000l68000 72000c188000,158000 365000,257000 494000,337000 121000,59000 210000,108000 210000,108000l-120000 -58000c-69000,-31000 -164000,-81000 -289000,-139000 -95000,-57000 -195000,-119000 -299000,-197000 -26000,-20000 -51000,-40000 -77000,-62000l-20000 -30000c-58000,-49000 -115000,-107000 -166000,-169000 -51000,-64000 -95000,-134000 -131000,-209000 -79000,-147000 -106000,-326000 -90000,-485000l11000 -39000c7000,-54000 20000,-105000 38000,-155000 30000,-78000 72000,-151000 121000,-213000 77000,-77000 161000,-125000 234000,-156000l34000 -12000 121000 -20000 -132000 0 -43000 12000c-68000,24000 -163000,66000 -254000,146000 -51000,48000 -101000,112000 -137000,188000 -35000,70000 -59000,152000 -68000,238000l-14000 71000c-8000,130000 12000,265000 62000,387000 11000,28000 24000,53000 38000,79000 79000,158000 192000,297000 320000,407000l27000 20000c104000,87000 225000,157000 332000,206000l75000 31000c119000,60000 232000,101000 307000,117000l119000 42000c0,0 -88000,-22000 -229000,-58000 -60000,-22000 -135000,-46000 -219000,-79000 -106000,-42000 -226000,-97000 -354000,-181000l-89000 -69000c-81000,-58000 -161000,-139000 -229000,-228000 -93000,-110000 -173000,-245000 -217000,-404000l-9000 -42000 -13000 -129000c-20000,-139000 13000,-289000 62000,-428000l26000 -53000 33000 -67000 107000 -126000c64000,-73000 143000,-130000 230000,-161000l28000 -9000 40000 -20000c139000,-38000 290000,-49000 429000,0l126000 60000c199000,101000 298000,307000 312000,495000l-23000 250000c-8000,37000 -19000,70000 -30000,101000 -20000,54000 -45000,106000 -76000,157000l-188000 166000 -108000 27000 -133000 33000 -10000 0 -197000 -80000 -111000 -157000 -9000 -168000 38000 -46000 51000 -64000 170000 -49000 58000 20000 -58000 -11000 -139000 80000 -7000 99000 -6000 100000c41000,79000 121000,126000 218000,119000l9000 -2000c97000,-11000 193000,-82000 239000,-177000 38000,-69000 66000,-150000 75000,-232000zm-3283000 -3257000c111000,27000 214000,86000 292000,166000 82000,82000 137000,183000 168000,289000 48000,175000 26000,365000 -65000,514000l-55000 88000 -8000 11000c-109000,121000 -228000,177000 -337000,228000l-97000 39000c-77000,29000 -144000,51000 -208000,80000l-13000 2000c-104000,49000 -194000,104000 -259000,162000 -40000,35000 -73000,70000 -95000,104000l-62000 119000 -9000 49000 9000 -29000 12000 -69000 132000 -188000 13000 -20000c60000,-59000 149000,-110000 250000,-159000l49000 -29000c44000,-19000 93000,-39000 141000,-63000 82000,-36000 166000,-78000 244000,-125000 72000,-42000 132000,-104000 177000,-172000 21000,-28000 39000,-59000 53000,-88000l39000 -98000c31000,-148000 11000,-289000 -39000,-387000 -51000,-99000 -116000,-170000 -166000,-210000l-89000 -41000 66000 63000c51000,40000 113000,107000 138000,208000 31000,98000 42000,217000 15000,347000l-33000 69000c-15000,25000 -31000,49000 -47000,73000 -44000,60000 -97000,113000 -161000,155000 -86000,57000 -173000,97000 -263000,141000 -37000,18000 -75000,36000 -111000,56000l-33000 22000c-110000,59000 -208000,128000 -267000,207000l-9000 18000 -111000 221000 -9000 69000 0 29000 0 -49000 18000 -139000c14000,-49000 42000,-100000 80000,-153000 60000,-82000 148000,-166000 259000,-234000l28000 -18000c36000,-22000 77000,-44000 118000,-66000 143000,-78000 296000,-160000 380000,-283000l20000 -36000 28000 -51000c58000,-150000 33000,-349000 -81000,-457000 -69000,-71000 -168000,-122000 -266000,-120000 -91000,0 -172000,25000 -230000,84000l-15000 14000 -98000 249000 107000 208000 196000 31000 89000 -130000 -40000 -119000 -27000 -31000 21000 10000 28000 11000 33000 49000 49000 71000 -33000 148000 -71000 80000 -108000 49000 -38000 8000 -181000 -37000c-16000,-9000 -35000,-20000 -49000,-33000 -35000,-25000 -68000,-56000 -95000,-93000 -44000,-56000 -73000,-126000 -84000,-202000 -29000,-139000 11000,-298000 109000,-426000l30000 -34000c100000,-110000 253000,-174000 407000,-174000 56000,0 111000,7000 164000,22000zm-904000 -1283000l-14000 -130000 -9000 130000 -19000 100000 -12000 29000 31000 -60000 9000 -40000 14000 40000 26000 60000 -9000 -29000 -17000 -100000zm6078000 7140000l39000 4000c148000,20000 257000,128000 288000,257000l6000 68000 2000 51000c-30000,179000 -196000,307000 -382000,287000l-4000 0 -86000 -30000c-105000,-45000 -180000,-142000 -200000,-255000 -4000,-30000 -6000,-61000 -2000,-92000 18000,-166000 170000,-290000 339000,-290000zm-2015000 -2001000l22000 -22000 96000 -69000 114000 -57000 106000 -53000 89000 -16000 40000 -11000 -18000 11000 -40000 16000 -48000 42000 -64000 40000 -49000 59000 -40000 38000 -26000 40000 -14000 20000 23000 0 48000 -9000 58000 -31000 72000 -38000 49000 -60000 31000 -59000 18000 -49000 0 -20000 0 40000 -18000 110000 -62000 116000 -117000 101000 -90000 42000 -62000 27000 -138000 9000 -97000 -29000 -40000 -20000 31000 -29000 58000 -71000 68000 -68000zm-4408000 -4376000l22000 0 55000 -50000 -71000 -226000 -121000 -40000 -107000 47000 -19000 29000 -53000 81000 0 120000 10000 61000c40000,98000 120000,177000 217000,246000l129000 121000 72000 118000 18000 90000 -9000 27000 0 -56000 -81000 -150000 -177000 -130000 -179000 -150000 -76000 -138000 0 -20000 -13000 -39000 13000 -197000 27000 -49000 15000 -22000 34000 -51000 13000 -8000 28000 -29000 -28000 9000 -22000 11000 -49000 39000 -4000 3000 -64000 77000 -53000 226000 0 11000 13000 30000 99000 208000 210000 159000 188000 100000 89000 110000 17000 56000 -50000 -88000c-49000,-49000 -129000,-89000 -235000,-129000l-192000 -88000 -166000 -199000 -49000 -140000 -13000 -50000 0 -107000c9000,-90000 55000,-190000 122000,-260000l20000 -18000 37000 -40000 102000 -60000 164000 -30000c121000,0 220000,61000 289000,130000 69000,69000 110000,166000 119000,268000 0,99000 -37000,178000 -99000,238000l-93000 47000 -46000 22000c-100000,20000 -155000,-40000 -186000,-80000l-18000 -119000 58000 79000 93000 0zm2325000 3023000c-22000,-117000 -61000,-228000 -119000,-325000l-20000 -27000c-59000,-101000 -135000,-192000 -227000,-261000l-32000 -19000c-99000,-58000 -185000,-109000 -287000,-127000 -33000,-8000 -66000,-15000 -99000,-17000 -164000,-18000 -306000,22000 -407000,53000l-115000 62000 -49000 28000 49000 -19000 124000 -49000c106000,-36000 272000,-56000 459000,-16000l29000 7000 248000 130000c99000,69000 181000,166000 250000,286000l7000 11000c28000,51000 50000,106000 68000,164000 60000,190000 68000,400000 15000,598000l-41000 98000 -12000 33000c-61000,157000 -148000,298000 -256000,416000 -35000,39000 -71000,75000 -110000,110000l-71000 49000c-73000,60000 -149000,112000 -226000,157000 -100000,59000 -203000,106000 -300000,141000 -72000,31000 -142000,54000 -208000,73000 -102000,29000 -193000,45000 -266000,64000l-157000 20000 -31000 11000 31000 -11000 56000 -9000c61000,-10000 150000,-31000 258000,-59000l97000 -29000c144000,-46000 323000,-113000 500000,-221000 71000,-44000 140000,-93000 210000,-150000l179000 -177000 2000 -3000 127000 -165000 55000 -109000c33000,-59000 59000,-121000 79000,-185000 43000,-137000 62000,-281000 42000,-429000 -20000,-109000 -61000,-230000 -117000,-339000l-123000 -148000 -56000 -71000 -48000 -33000 -34000 -24000c-148000,-100000 -334000,-130000 -526000,-90000 -71000,13000 -141000,39000 -206000,73000 -125000,68000 -227000,170000 -280000,294000 -14000,37000 -25000,74000 -34000,112000 -35000,171000 -8000,358000 63000,504000l154000 166000 49000 49000 205000 80000 58000 11000c88000,10000 172000,-7000 245000,-42000 84000,-40000 151000,-102000 191000,-175000 72000,-120000 55000,-248000 -7000,-358000l-4000 -5000 -38000 -55000 -51000 -33000 -104000 -65000 -99000 -11000 -73000 20000c-98000,31000 -168000,89000 -193000,138000l-24000 68000 -9000 22000 0 -22000 18000 -66000c20000,-60000 81000,-140000 192000,-201000l146000 -29000 2000 0 49000 0 228000 99000 40000 60000 97000 190000c9000,25000 15000,53000 17000,82000 7000,73000 -6000,155000 -37000,236000 -46000,91000 -115000,182000 -204000,242000l-24000 15000c-110000,69000 -237000,108000 -363000,99000l-192000 -30000 -108000 -45000 -78000 -35000 -53000 -38000c-88000,-70000 -176000,-152000 -238000,-249000 -18000,-29000 -33000,-62000 -47000,-93000 -99000,-224000 -113000,-498000 -22000,-741000 58000,-139000 162000,-267000 277000,-356000 17000,-13000 33000,-26000 50000,-36000 98000,-70000 213000,-119000 332000,-143000l26000 -9000c67000,-7000 133000,-16000 200000,-16000 22000,1000 44000,1000 68000,5000l168000 20000c130000,29000 237000,90000 341000,159000l59000 49000c76000,81000 146000,157000 195000,249000 90000,158000 152000,326000 159000,496000l2000 6000c7000,87000 0,173000 -11000,261000 -15000,124000 -51000,243000 -101000,350000 -18000,40000 -36000,79000 -58000,117000 -73000,117000 -153000,217000 -241000,303000 -68000,68000 -141000,124000 -214000,172000l-200000 129000 -6000 2000c-199000,97000 -385000,146000 -542000,179000 -53000,11000 -102000,20000 -146000,28000 -110000,11000 -196000,20000 -267000,20000l-58000 0 155000 -9000c79000,-13000 183000,-28000 299000,-55000 62000,-15000 130000,-31000 198000,-55000 105000,-33000 219000,-80000 328000,-141000l70000 -40000 237000 -157000c38000,-33000 75000,-67000 111000,-106000 117000,-122000 219000,-270000 287000,-434000 20000,-50000 38000,-102000 51000,-155000l6000 -48000c34000,-150000 36000,-305000 11000,-451000zm-2482000 -2463000c68000,35000 126000,82000 170000,146000 17000,22000 31000,44000 46000,68000 64000,113000 89000,243000 64000,358000 -15000,115000 -77000,210000 -152000,275000 -24000,20000 -47000,39000 -73000,53000l-179000 37000 -40000 -8000 -111000 -49000 -68000 -80000 -31000 -148000 80000 -120000 50000 -21000 -41000 31000 -31000 119000 90000 130000 201000 -31000 22000 -44000 85000 -164000 -100000 -247000c-60000,-69000 -146000,-102000 -248000,-100000 -68000,0 -137000,23000 -196000,58000 -25000,15000 -51000,33000 -73000,51000 -109000,119000 -138000,318000 -75000,466000l46000 89000 22000 31000c24000,28000 49000,53000 77000,77000 117000,97000 272000,164000 400000,239000l27000 20000c179000,110000 298000,258000 338000,387000l22000 135000 1000 4000 0 49000 0 -29000 -5000 -29000 -9000 -40000 -119000 -249000c-60000,-69000 -157000,-138000 -265000,-199000l-32000 -18000c-57000,-31000 -115000,-58000 -172000,-86000 -69000,-34000 -139000,-69000 -206000,-113000 -88000,-58000 -156000,-139000 -205000,-237000l-33000 -70000 -7000 -27000c-20000,-109000 -7000,-219000 16000,-310000 31000,-99000 90000,-170000 130000,-210000l29000 -24000 51000 -46000 -62000 35000 -27000 17000c-51000,40000 -121000,98000 -170000,208000 -33000,67000 -51000,153000 -51000,246000 2000,46000 7000,91000 16000,141000l35000 98000c49000,101000 130000,190000 228000,260000 130000,78000 272000,127000 389000,186000l48000 31000 11000 5000c95000,48000 180000,95000 241000,154000l146000 208000 3000 27000 6000 42000 14000 29000 -14000 -49000 -17000 -33000 -42000 -86000c-49000,-73000 -144000,-155000 -270000,-224000 -27000,-15000 -55000,-29000 -86000,-44000l-12000 2000c-88000,-40000 -185000,-71000 -307000,-121000 -110000,-49000 -225000,-120000 -338000,-230000l-56000 -97000c-73000,-115000 -104000,-255000 -92000,-396000 13000,-148000 75000,-294000 188000,-407000 20000,-22000 40000,-42000 64000,-60000 113000,-88000 256000,-128000 393000,-128000 93000,0 186000,20000 266000,62000zm5242000 5925000c33000,-110000 122000,-190000 237000,-216000l117000 -7000c188000,18000 329000,186000 309000,367000 -17000,131000 -111000,239000 -236000,281000 -43000,15000 -91000,20000 -140000,17000 -112000,-20000 -197000,-81000 -247000,-170000l-53000 -199000c2000,-26000 6000,-49000 13000,-73000zm-1970000 -1956000l-66000 -115000 -18000 -78000 -22000 -148000 22000 -159000 27000 -60000 32000 60000 80000 119000 0 11000 98000 146000 130000 159000 130000 149000 138000 130000 90000 90000 9000 9000 48000 49000 -26000 -20000 -40000 -29000 -24000 -9000 -89000 -61000 -106000 -60000 -90000 -69000 -89000 -70000 -59000 -40000 -31000 -18000 9000 29000 41000 69000 71000 90000 98000 80000 115000 70000 112000 29000 9000 0 73000 9000 26000 0 -57000 11000 -58000 0 -105000 -11000 -182000 -68000 -31000 -11000 -201000 -169000 -64000 -114000zm-577000 -573000l88000 -86000 129000 -129000 57000 -61000 -7000 81000 -40000 188000 -73000 160000 -10000 19000 -47000 67000 -212000 241000 -71000 53000c-66000,46000 -133000,86000 -206000,115000 -90000,40000 -178000,70000 -265000,79000l-55000 3000 -133000 8000 -81000 -11000 41000 0 98000 -9000 51000 -11000 88000 -20000 152000 -59000 136000 -89000 94000 -86000 14000 -15000 40000 -29000 31000 -40000 19000 -27000 -31000 7000 -50000 31000 -40000 18000 -24000 15000 -93000 56000 -137000 70000 -138000 69000 -108000 51000 -13000 8000 -98000 40000 -32000 20000 57000 -40000 68000 -46000 93000 -64000 197000 -139000 130000 -98000 89000 -68000 80000 -80000 130000 -110000 82000 -82000zm1603000 2310000c70000,-77000 175000,-121000 287000,-113000 188000,20000 327000,186000 307000,366000 -10000,88000 -53000,165000 -119000,220000 -66000,56000 -153000,87000 -245000,78000 -192000,-11000 -325000,-179000 -310000,-358000 3000,-75000 34000,-142000 80000,-193000zm-9746000 -9679000l26000 -179000 27000 51000 172000 353000c122000,250000 244000,498000 363000,748000 108000,218000 214000,433000 318000,649000 69000,140000 139000,283000 208000,423000 119000,249000 243000,495000 349000,745000l84000 185000 63000 133000c50000,108000 90000,215000 139000,316000 99000,228000 201000,447000 287000,655000l66000 163000c89000,217000 177000,421000 263000,619000l58000 160000c60000,150000 119000,294000 173000,433000 53000,135000 103000,263000 145000,381000 60000,168000 109000,307000 159000,446000l51000 119000c22000,65000 42000,126000 60000,180000 29000,88000 51000,163000 67000,218000 30000,89000 50000,137000 50000,137000l-90000 -117000c-49000,-81000 -124000,-199000 -228000,-349000l-170000 -256000c-54000,-85000 -115000,-178000 -177000,-279000 -89000,-130000 -175000,-277000 -277000,-436000 -50000,-90000 -106000,-179000 -168000,-278000 -130000,-219000 -278000,-467000 -418000,-725000l-42000 -73000 -424000 -739000c-49000,-90000 -95000,-181000 -148000,-268000 -69000,-139000 -148000,-278000 -219000,-428000l-82000 -153000c-80000,-152000 -161000,-307000 -245000,-462000l-18000 0 -11000 0 -27000 163000c-20000,120000 -41000,237000 -59000,354000l-3000 20000 -46000 241000 -40000 234000 -24000 91000c-15000,93000 -31000,186000 -49000,277000 -19000,95000 -39000,186000 -61000,278000l-65000 319000 -82000 395000 -31000 138000 -11000 59000 -75000 358000 -31000 138000 -22000 70000 -6000 22000c-45000,208000 -91000,400000 -137000,580000 -22000,79000 -43000,157000 -65000,232000l-86000 334000c-26000,99000 -49000,188000 -73000,271000l-86000 292000 -33000 106000c-31000,89000 -36000,138000 -36000,138000l0 -20000 -4000 -129000 2000 -167000c0,-73000 0,-157000 -2000,-250000 7000,-131000 15000,-281000 22000,-449000l7000 -186000c7000,-152000 17000,-318000 29000,-493000l26000 -341000 9000 -108000 6000 -119000 9000 -102000c9000,-102000 18000,-201000 25000,-305000l6000 -130000 22000 -231000c16000,-174000 34000,-347000 47000,-532000l15000 -124000c14000,-140000 31000,-285000 47000,-422000l18000 -127000 11000 -94000c13000,-118000 24000,-237000 39000,-354000l12000 -109000 26000 -177000 2000 -11000c9000,-110000 31000,-230000 40000,-347000l18000 -90000 26000 -186000c29000,-208000 60000,-416000 91000,-626000l95000 -625000 93000 -628000zm8852000 9509000c49000,-20000 102000,-29000 160000,-24000 186000,11000 331000,168000 316000,358000 -4000,40000 -15000,77000 -29000,110000 -59000,126000 -188000,204000 -336000,197000 -190000,-9000 -327000,-168000 -320000,-356000 15000,-124000 97000,-236000 209000,-285000zm-3420000 -3394000c-44000,-66000 -102000,-123000 -168000,-168000 -80000,-55000 -175000,-93000 -272000,-112000 -175000,-38000 -347000,-14000 -493000,70000l-31000 20000 -77000 47000 -181000 230000c-16000,30000 -31000,59000 -43000,90000 -35000,78000 -59000,161000 -77000,248000 -22000,152000 2000,307000 53000,449000 20000,53000 44000,104000 69000,154000l59000 120000 129000 168000 176000 170000c155000,133000 323000,225000 476000,290000 122000,53000 236000,90000 329000,117000 107000,29000 197000,48000 261000,59000l58000 9000 31000 11000 -31000 -11000 -162000 -19000c-113000,-29000 -270000,-67000 -449000,-129000l-26000 -9000c-170000,-61000 -356000,-161000 -524000,-298000l-71000 -60000c-159000,-139000 -287000,-318000 -367000,-517000l-49000 -137000 -4000 -13000c-59000,-226000 -40000,-469000 49000,-671000 11000,-24000 22000,-48000 35000,-72000l7000 -9000c71000,-118000 150000,-217000 252000,-286000l37000 -21000 208000 -109000c148000,-37000 279000,-37000 387000,-16000 36000,5000 71000,14000 100000,25000l130000 49000 49000 19000 -49000 -28000 -121000 -58000c-43000,-18000 -93000,-35000 -147000,-48000 -101000,-20000 -223000,-25000 -358000,8000 -90000,18000 -170000,51000 -256000,100000l-29000 18000 -33000 20000c-89000,70000 -168000,167000 -224000,267000l-24000 31000 -28000 47000c-93000,185000 -126000,411000 -96000,625000 5000,31000 11000,60000 16000,89000l9000 62000c70000,278000 250000,515000 447000,694000l238000 159000c128000,80000 272000,137000 396000,179000 42000,15000 84000,27000 124000,38000 148000,39000 279000,53000 371000,70000l162000 11000 31000 0 -31000 0 -62000 0c-69000,-9000 -157000,-11000 -268000,-30000 -53000,-5000 -113000,-14000 -179000,-29000 -150000,-29000 -327000,-84000 -513000,-181000l-201000 -118000c-168000,-119000 -327000,-278000 -456000,-486000 -79000,-128000 -139000,-288000 -159000,-456000l-8000 -84000c-5000,-62000 -5000,-126000 -1000,-194000 7000,-133000 52000,-275000 118000,-411000l40000 -74000c50000,-90000 121000,-181000 201000,-249000l57000 -49000 29000 -20000c91000,-60000 195000,-113000 312000,-139000l165000 -29000 76000 0c64000,0 128000,4000 192000,18000l29000 11000c139000,29000 270000,90000 378000,179000 119000,89000 217000,215000 278000,356000 45000,121000 65000,245000 62000,367000 -6000,164000 -51000,325000 -132000,467000 -14000,26000 -31000,48000 -49000,72000 -55000,65000 -119000,124000 -186000,175000l-50000 40000 -188000 80000 -193000 30000c-128000,0 -258000,-31000 -365000,-99000 -101000,-69000 -177000,-161000 -229000,-268000 -40000,-99000 -47000,-218000 -16000,-318000l51000 -91000 48000 -88000 40000 -60000 228000 -99000 49000 0 137000 29000 9000 2000c106000,59000 166000,134000 187000,192000l1000 5000 22000 61000 0 29000 -9000 -29000 -22000 -59000c-31000,-51000 -98000,-111000 -195000,-149000l-73000 -11000 -97000 11000 -161000 98000 -40000 60000c-18000,28000 -31000,59000 -40000,92000 -22000,84000 -18000,179000 29000,266000 81000,139000 252000,236000 439000,217000l18000 -3000 40000 -8000 210000 -80000 49000 -49000 128000 -153000 11000 -13000c97000,-179000 119000,-418000 38000,-616000 -12000,-31000 -29000,-60000 -47000,-87000zm2609000 3308000c131000,28000 232000,128000 259000,258000 7000,29000 9000,60000 7000,93000 -10000,166000 -144000,305000 -315000,316000 -15000,0 -28000,0 -42000,0 -159000,-10000 -285000,-128000 -303000,-278000l-15000 -78000 0 -2000 89000 -197000c61000,-79000 161000,-119000 269000,-119000 16000,2000 35000,3000 51000,7000zm-2238000 -2224000l9000 -25000 0 -61000 0 -29000 7000 50000 0 84000 0 54000 -71000 170000 -97000 119000 -49000 40000 -77000 40000 -71000 37000 -40000 20000 -192000 31000 -130000 -31000 -49000 -20000 40000 -37000 102000 -69000 117000 -90000 9000 0 30000 -25000 91000 -75000 80000 -60000 48000 -39000 122000 -89000 60000 -55000 29000 -26000 41000 -29000 -15000 20000 -40000 50000 -57000 69000 -49000 69000 -58000 81000 -33000 38000 -22000 31000 -35000 49000 -13000 21000 22000 0 57000 -30000 24000 -11000 58000 -40000 66000 -78000 64000 -90000 22000 -64000zm472000 402000l146000 88000 42000 9000 187000 31000 129000 -31000 50000 -20000 -41000 -29000 -98000 -77000 -115000 -90000 -15000 0 -115000 -100000 -80000 -60000 -49000 -39000 -121000 -89000 -89000 -81000 -41000 -29000 13000 20000 37000 50000 62000 69000 49000 69000 58000 81000 32000 38000 18000 31000 40000 49000 9000 21000 -18000 0 -59000 -30000 -22000 -11000 -58000 -40000 -71000 -78000 -59000 -90000 -31000 -89000 0 -61000 0 -29000 -9000 50000 0 138000 71000 170000 99000 119000 49000 40000zm-129000 486000l31000 0 -31000 0zm535000 1422000c65000,-84000 171000,-139000 286000,-133000 188000,0 340000,157000 327000,348000 -5000,103000 -60000,196000 -140000,254000 -61000,42000 -134000,66000 -214000,62000 -181000,-9000 -325000,-159000 -329000,-347000 4000,-67000 29000,-131000 70000,-184000zm-5456000 -5415000c55000,11000 104000,36000 146000,75000 62000,54000 97000,116000 114000,180000 7000,29000 9000,59000 9000,86000l0 20000 -62000 239000 -139000 167000 -7000 7000 -157000 151000 -63000 70000 -58000 89000 -31000 101000 0 1000 0 88000 -9000 -49000 4000 -44000 5000 -77000 13000 -29000 58000 -119000 28000 -40000 102000 -117000 56000 -76000 72000 -93000 67000 -179000 -7000 -130000 0 -9000 -18000 -40000 0 29000 0 20000 -24000 119000 -88000 149000 -66000 70000 -73000 80000 -107000 150000 -13000 16000 -49000 150000 -9000 40000 10000 46000 21000 84000 27000 49000 -18000 -20000 -40000 -69000 -11000 -66000 -11000 -73000 31000 -130000 18000 -38000c40000,-99000 111000,-188000 159000,-269000l7000 -9000c66000,-85000 115000,-173000 106000,-250000l-24000 -78000 -58000 -29000 -48000 29000 -22000 98000 22000 61000 26000 9000 31000 -9000 9000 -30000 9000 0 -18000 -31000 33000 11000 0 9000 16000 70000 -49000 60000 -79000 20000 -82000 -66000 -65000 -53000 -2000 -14000 -29000 -196000 21000 -58000 41000 -71000 138000 -79000c48000,-12000 95000,-12000 137000,-3000zm-504000 -501000l-12000 -42000 -19000 -29000 -22000 -40000 -27000 -49000 -22000 -20000 0 20000 0 58000 0 2000 9000 89000 13000 90000 27000 89000 41000 79000 31000 51000 18000 20000 -37000 -40000 -80000 -90000 -80000 -129000 -57000 -170000 -15000 -18000 -12000 -115000 -6000 -46000 0 -159000 18000 -117000 15000 -29000 9000 -11000 17000 20000 9000 11000 80000 90000 90000 139000 62000 166000 18000 138000 9000 31000 0 86000 0 73000 -27000 119000 -13000 51000 0 -31000 0 -60000 0 -79000 -18000 -98000 -19000 -50000zm5096000 5775000c38000,-14000 77000,-22000 119000,-22000 188000,0 348000,157000 336000,338000 0,40000 -6000,81000 -19000,115000 -45000,130000 -167000,219000 -317000,212000 -179000,11000 -334000,-139000 -338000,-327000 -7000,-139000 88000,-268000 219000,-316000zm-1289000 -1281000l91000 9000 41000 0 -81000 11000 -33000 -2000 -158000 -7000c-90000,-11000 -176000,-42000 -267000,-81000 -100000,-40000 -190000,-100000 -274000,-170000l-210000 -239000 -49000 -67000 -80000 -179000 -41000 -188000 -9000 -81000 59000 50000 129000 140000 170000 168000 130000 110000 75000 80000 219000 166000 23000 17000 178000 122000 156000 100000 63000 50000 -31000 -20000 -99000 -40000 -104000 -52000 -17000 -7000 -138000 -69000 -139000 -70000 -121000 -71000 -40000 -18000 -49000 -31000 -26000 -20000 19000 31000 31000 38000 40000 40000 108000 101000 137000 78000 151000 70000 139000 31000 7000 0zm-2918000 -2896000c103000,22000 196000,73000 273000,137000l5000 22000c66000,66000 115000,151000 133000,248000 6000,20000 8000,38000 9000,59000l-12000 98000c-20000,139000 -99000,247000 -166000,336000l-22000 20000 -9000 9000 -139000 161000 -19000 20000 -142000 199000 -13000 26000c-71000,127000 -106000,235000 -137000,321000 -18000,89000 -23000,148000 -23000,148000l9000 -80000 34000 -198000c26000,-73000 52000,-148000 88000,-221000l24000 -47000 129000 -208000 50000 -70000 89000 -100000 117000 -186000c49000,-99000 53000,-219000 13000,-298000l0 -11000 -139000 -179000 -71000 -40000 62000 60000 77000 130000 22000 40000 -41000 269000 -111000 144000 -18000 22000 -68000 89000 -62000 81000 -130000 219000 -9000 21000c-34000,94000 -58000,192000 -65000,263000l-15000 220000 9000 80000c0,0 -18000,-51000 -20000,-148000 -9000,-99000 2000,-248000 51000,-407000l15000 -33000 97000 -226000 18000 -21000 120000 -168000 31000 -36000 9000 -13000 90000 -230000 -62000 -186000 -179000 -80000 -190000 80000c-18000,16000 -31000,35000 -42000,55000 -44000,78000 -35000,177000 4000,233000l31000 41000 89000 20000 59000 -13000 34000 -64000 24000 -44000 -58000 -119000 40000 21000 71000 89000 -22000 108000 -18000 89000 -13000 0c-58000,71000 -164000,90000 -277000,60000 -110000,-40000 -187000,-160000 -205000,-277000l-4000 -20000c-9000,-101000 19000,-206000 75000,-292000 11000,-17000 22000,-31000 35000,-46000l108000 -98000c69000,-50000 151000,-81000 250000,-92000l38000 2000c24000,2000 48000,6000 69000,11000zm-1164000 -1158000l14000 -3000c90000,-9000 190000,20000 249000,87000l49000 79000 31000 130000 -18000 31000 -72000 127000 -129000 31000 -90000 -40000 33000 0 57000 -11000 58000 -138000 -58000 -59000 -66000 0 -73000 59000 -31000 100000 104000 248000 177000 219000 28000 17000 111000 199000 9000 20000 2000 7000 16000 93000 -18000 -51000 -29000 -71000 -2000 -7000 -18000 -40000 -121000 -137000 -58000 -50000 -88000 -80000 -131000 -150000 -81000 -138000 -31000 -119000 0 -40000 -16000 40000 -9000 129000 22000 63000 44000 116000 104000 126000 40000 33000 146000 139000 98000 78000 32000 30000 89000 89000 27000 40000 -67000 -71000 -170000 -119000 -11000 -7000c-80000,-49000 -177000,-102000 -274000,-199000l-42000 -31000 -100000 -137000c-39000,-75000 -57000,-150000 -60000,-232000l0 -16000c0,-90000 32000,-190000 100000,-259000l88000 -81000 135000 -44000zm2720000 3422000l15000 -24000 27000 -49000 31000 60000 11000 97000 7000 62000 -18000 137000 -16000 80000 -130000 228000 -29000 24000 -172000 144000 -219000 81000 -98000 9000 -59000 0 -62000 -9000 31000 0 71000 0 4000 -6000 5000 -5000 108000 -29000 121000 -59000 98000 -80000 71000 -90000 19000 -38000 22000 -42000 7000 -29000 -29000 20000 -28000 24000 -31000 25000 -89000 60000 -90000 70000 -111000 69000 -90000 50000 -18000 20000 -40000 20000 -31000 20000 49000 -40000 9000 -13000 4000 -7000 90000 -79000 138000 -130000 123000 -151000 7000 -7000 130000 -157000 96000 -150000 0 -9000 66000 -97000zm-378000 -374000c-31000,-146000 -108000,-269000 -195000,-353000 -110000,-98000 -228000,-140000 -296000,-149000l-16000 -2000 -114000 -8000 117000 30000 26000 7000c75000,24000 166000,71000 243000,161000 47000,54000 87000,120000 118000,197000 20000,53000 35000,109000 42000,170000l9000 31000c19000,164000 -9000,326000 -84000,482000l-7000 12000c-67000,141000 -177000,267000 -294000,377000l-16000 16000 -6000 5000c-129000,110000 -259000,189000 -378000,258000l-49000 25000c-97000,48000 -177000,90000 -237000,125000l-121000 49000c0,0 93000,-40000 208000,-110000 42000,-22000 88000,-47000 137000,-76000 110000,-66000 238000,-152000 360000,-261000l51000 -50000 18000 -20000c115000,-108000 221000,-246000 282000,-401000 23000,-59000 38000,-121000 45000,-183000 20000,-139000 15000,-279000 -47000,-409000l-11000 -9000c-59000,-119000 -146000,-217000 -267000,-259000l-22000 -8000c-118000,-40000 -244000,-33000 -347000,20000 -43000,24000 -80000,55000 -111000,93000 -44000,57000 -73000,126000 -88000,205000 -18000,128000 15000,267000 72000,367000 49000,109000 149000,168000 246000,179000 100000,9000 179000,-40000 219000,-110000l-9000 -204000 0 -6000 -11000 -5000 -126000 -64000 -58000 0 58000 -20000 58000 16000 110000 33000 90000 121000 -2000 44000 -6000 124000 -113000 157000 -195000 71000 -15000 0 -51000 -11000 -184000 -40000 -190000 -176000c-50000,-71000 -88000,-160000 -110000,-259000l0 -5000 -20000 -243000c7000,-117000 55000,-248000 142000,-356000 44000,-55000 101000,-104000 168000,-141000l126000 -58000c66000,-18000 134000,-28000 201000,-26000 77000,0 154000,13000 227000,35000l38000 11000c100000,40000 190000,99000 261000,168000l108000 137000 58000 111000c35000,95000 60000,196000 68000,292000 2000,46000 0,90000 -6000,134000l-13000 129000c-23000,115000 -69000,219000 -124000,313000 -31000,52000 -67000,100000 -104000,144000 -67000,89000 -148000,159000 -224000,217000l-19000 15000 -73000 56000c-144000,93000 -277000,155000 -392000,197000 -70000,26000 -132000,46000 -185000,61000 -138000,40000 -224000,60000 -224000,60000l117000 -40000c71000,-19000 171000,-53000 275000,-97000l31000 -13000c130000,-58000 278000,-129000 408000,-248000l12000 -7000 17000 -11000c126000,-106000 232000,-234000 310000,-384000l7000 -14000c81000,-148000 114000,-309000 99000,-468000l-9000 -78000c-4000,-24000 -7000,-50000 -13000,-73000zm1809000 2512000c48000,-124000 163000,-217000 307000,-217000 188000,-9000 349000,140000 356000,317000 0,155000 -97000,283000 -230000,329000 -29000,9000 -62000,16000 -93000,18000 -192000,2000 -349000,-139000 -361000,-327000 0,-42000 9000,-82000 21000,-120000zm-4239000 -4210000l42000 -4000c139000,0 281000,79000 358000,177000l31000 40000 80000 227000 -2000 42000 2000 25000c4000,99000 -27000,186000 -80000,241000l-188000 101000 -121000 -31000 -40000 -30000 152000 10000 107000 -110000 10000 -186000 -99000 -179000 -9000 -9000 -210000 -81000 -186000 97000 -50000 190000 -9000 40000 106000 239000c59000,70000 139000,119000 228000,168000 88000,50000 188000,99000 278000,150000 99000,60000 179000,128000 237000,199000 40000,48000 75000,95000 102000,139000 48000,75000 79000,144000 97000,206000l20000 51000c19000,99000 22000,157000 22000,157000l-9000 -78000 -49000 -150000 -44000 -68000c-40000,-89000 -109000,-178000 -199000,-268000 -88000,-78000 -204000,-139000 -327000,-188000 -119000,-49000 -226000,-100000 -317000,-159000 -99000,-60000 -167000,-149000 -207000,-219000l-67000 -210000 0 -89000 -22000 91000c0,49000 0,137000 38000,228000 40000,90000 113000,188000 208000,269000 101000,69000 221000,118000 327000,168000 121000,51000 221000,109000 310000,177000l210000 208000 9000 20000 106000 190000 33000 78000 -73000 -139000 -155000 -188000 -120000 -107000 -220000 -130000c-89000,-40000 -188000,-69000 -297000,-109000 -101000,-50000 -225000,-110000 -318000,-218000 -98000,-100000 -166000,-239000 -179000,-387000 -13000,-102000 6000,-208000 48000,-305000 20000,-43000 44000,-86000 73000,-122000l49000 -40000 179000 -110000 135000 -14000zm3380000 4075000c42000,-24000 91000,-39000 144000,-42000 109000,-9000 212000,40000 268000,108000l90000 208000 0 82000c-8000,36000 -22000,71000 -41000,104000 -54000,93000 -157000,155000 -277000,162000 -190000,11000 -343000,-129000 -358000,-317000 -7000,-128000 64000,-245000 174000,-305000zm-2458000 -1722000l-5000 -38000 -8000 -57000 -14000 -20000 31000 37000 40000 109000 2000 13000 7000 137000 -58000 170000 -121000 138000 -67000 35000 -70000 35000 -108000 20000 -49000 0 18000 -49000 41000 -90000 25000 -58000 24000 -51000 71000 -110000 58000 -110000 66000 -109000 53000 -66000 11000 -14000 26000 -37000 -9000 20000 -15000 44000 -2000 4000 -24000 69000 -25000 69000 -15000 81000 -18000 69000 -9000 49000 0 20000 18000 -10000 40000 -39000 42000 -60000 39000 -80000 9000 -90000 -4000 -31000zm-1010000 -1004000c141000,4000 278000,44000 398000,115000 90000,60000 170000,128000 229000,228000 49000,90000 93000,188000 98000,287000 2000,33000 4000,64000 2000,93000 -4000,73000 -20000,144000 -51000,215000 -49000,90000 -117000,168000 -188000,219000l-27000 19000c-72000,47000 -148000,71000 -232000,80000 -99000,0 -188000,-22000 -254000,-71000l-152000 -179000 -9000 -206000 112000 -150000 5000 -2000 133000 -38000 187000 40000 40000 20000 18000 11000c0,9000 -90000,-60000 -236000,-11000l-63000 57000 -97000 93000c-20000,89000 53000,177000 139000,228000 74000,42000 177000,27000 261000,-20000 16000,-9000 31000,-20000 45000,-31000 99000,-79000 143000,-208000 119000,-336000 -20000,-130000 -97000,-250000 -219000,-318000 -117000,-69000 -274000,-91000 -405000,-49000 -64000,20000 -125000,56000 -174000,106000 -49000,47000 -88000,108000 -115000,171000 -60000,139000 -46000,278000 11000,408000 13000,29000 29000,56000 47000,84000 63000,93000 148000,171000 231000,242000 27000,24000 54000,48000 84000,70000 84000,64000 175000,113000 262000,159000 229000,127000 450000,188000 596000,219000 149000,29000 250000,38000 250000,38000l-141000 -9000c-80000,-11000 -197000,-33000 -338000,-69000 -138000,-30000 -297000,-90000 -456000,-170000l-9000 -4000c-154000,-89000 -307000,-186000 -437000,-323000 -89000,-90000 -162000,-197000 -200000,-311000 -17000,-51000 -28000,-104000 -28000,-155000 0,-169000 70000,-328000 159000,-427000l4000 -4000c98000,-96000 208000,-146000 286000,-166000l99000 -20000 29000 0 -29000 0 -102000 2000c-79000,9000 -207000,48000 -318000,148000l0 2000c-119000,109000 -206000,266000 -208000,465000 0,17000 0,33000 0,48000 9000,182000 111000,359000 239000,487000 137000,139000 321000,249000 477000,327000 58000,29000 118000,53000 179000,75000 107000,38000 213000,64000 306000,84000 139000,20000 270000,31000 351000,31000l135000 -11000c0,0 -86000,18000 -257000,20000 -125000,-7000 -291000,-22000 -484000,-73000 -55000,-16000 -114000,-33000 -172000,-55000 -130000,-51000 -268000,-120000 -405000,-210000 -130000,-98000 -269000,-219000 -369000,-387000 -62000,-106000 -97000,-243000 -91000,-378000 3000,-78000 20000,-155000 53000,-226000 34000,-101000 93000,-195000 169000,-274000 75000,-77000 168000,-139000 276000,-173000 79000,-24000 159000,-35000 237000,-35000zm-4241000 -4210000c-29000,-134000 -60000,-265000 -93000,-396000 69000,98000 139000,195000 208000,297000 164000,237000 329000,466000 486000,696000l100000 146000c168000,248000 327000,485000 479000,716000l7000 20000c168000,237000 327000,474000 487000,713000l50000 79000 47000 80000c69000,99000 132000,187000 190000,285000l57000 84000 5000 7000 68000 101000c138000,237000 275000,465000 398000,672000l85000 170000c150000,261000 272000,492000 369000,688000l88000 186000c69000,119000 122000,226000 153000,296000l50000 100000 -94000 -80000c-49000,-49000 -126000,-130000 -226000,-228000 -199000,-208000 -475000,-506000 -792000,-873000l-82000 -89000c-139000,-159000 -276000,-329000 -422000,-506000l-15000 -9000 -9000 0 -7000 -11000 -24000 -9000 -27000 -21000 -31000 -10000 0 51000 0 20000 23000 38000 -14000 -9000 0 9000 -9000 0 9000 20000 40000 197000 9000 -89000 40000 -79000 24000 -29000 31000 20000 66000 60000 58000 90000 40000 108000 9000 118000 -9000 50000 -9000 60000 -31000 89000 -18000 30000 0 -20000 9000 -39000 0 -60000 0 -49000 0 -11000 -17000 -59000 -32000 -51000 -19000 -40000 -21000 -9000 0 20000 -10000 40000 0 58000 0 61000 19000 60000 31000 49000 18000 40000 22000 10000 -40000 -20000 -57000 -59000 -49000 -69000 -24000 -20000 9000 20000 9000 45000 31000 154000c41000,244000 81000,482000 115000,712000 48000,294000 88000,573000 121000,836000l11000 88000c34000,264000 58000,507000 77000,719000 14000,168000 25000,318000 32000,442000 20000,144000 24000,250000 24000,330000l0 6000 9000 109000 -51000 -98000c-11000,-30000 -25000,-64000 -42000,-101000 -25000,-58000 -56000,-128000 -87000,-206000 -97000,-237000 -216000,-561000 -353000,-948000l-55000 -153000c-87000,-276000 -182000,-577000 -277000,-896000 -66000,-220000 -132000,-448000 -197000,-681000l-57000 -199000 -29000 -117000 -31000 -132000 -62000 -228000c-40000,-148000 -81000,-288000 -108000,-436000l-13000 -61000 -16000 -49000 -15000 -58000 -35000 -152000 -12000 -56000c-55000,-243000 -115000,-486000 -172000,-727000l-47000 -197000c-50000,-188000 -86000,-376000 -126000,-575000l-41000 -159000 -12000 -50000c-68000,-292000 -128000,-584000 -194000,-872000zm5854000 5475000l98000 -20000 40000 -20000 -33000 -40000 -56000 -70000 -90000 -80000 -102000 -78000 -108000 -59000 -111000 -42000 -89000 -27000 -37000 -9000 18000 9000 41000 20000 49000 40000 58000 49000 53000 48000 37000 49000 31000 40000 9000 20000 -18000 -9000 -50000 -11000 -62000 -29000 -67000 -40000 -50000 -60000 -31000 -57000 -18000 -49000 0 -20000 0 36000 18000 110000 59000 120000 120000 110000 148000 58000 143000 11000zm673000 1722000c40000,-128000 157000,-228000 303000,-243000 190000,-11000 349000,128000 369000,318000 8000,159000 -98000,299000 -257000,338000 -19000,5000 -39000,7000 -60000,9000 -189000,20000 -346000,-121000 -368000,-309000 -1000,-38000 2000,-77000 13000,-113000zm-847000 -121000c40000,-20000 86000,-31000 133000,-34000l-3000 2000c188000,-21000 361000,116000 367000,297000 7000,69000 -8000,135000 -39000,192000 -51000,95000 -149000,162000 -268000,175000 -179000,9000 -347000,-120000 -369000,-308000 -14000,-134000 60000,-263000 179000,-324000zm-926000 -918000l37000 -9000 27000 -11000 -54000 29000 -4000 2000 -170000 49000 -237000 0 -267000 -69000 -148000 -86000 -89000 -51000 -170000 -179000 -29000 -57000 -51000 -93000 -19000 -60000 59000 20000 148000 70000 186000 91000c100000,38000 162000,67000 221000,89000 58000,30000 120000,50000 217000,86000l201000 80000 73000 30000 75000 29000 58000 20000 -27000 -9000 -73000 -9000 -16000 -2000 -112000 -29000 -139000 -20000 -129000 -28000 -106000 -22000 -90000 -7000 -31000 -11000 31000 18000 68000 50000 111000 49000 137000 40000 139000 20000 121000 -9000 52000 -11000zm-2413000 -1681000l9000 -44000 -40000 -190000 -68000 -97000 -40000 -29000 18000 38000 40000 108000 0 133000 0 28000 -40000 178000 -67000 179000 -53000 168000 -2000 8000 -26000 109000 -9000 42000 6000 -89000c0,-20000 5000,-50000 11000,-81000l29000 -147000c20000,-90000 53000,-200000 60000,-287000 7000,-80000 4000,-163000 -20000,-216000 -4000,-12000 -11000,-23000 -18000,-32000l-29000 -15000 -110000 -55000 -58000 48000 -10000 89000 126000 101000 81000 0 -18000 18000 -63000 42000c-60000,20000 -166000,27000 -259000,-81000 -86000,-94000 -98000,-295000 57000,-414000l14000 -11000 278000 -40000 217000 159000c97000,146000 92000,317000 53000,449000l-4000 7000c-40000,130000 -96000,227000 -146000,307000l-109000 150000 -29000 40000 -59000 58000 28000 -42000 45000 -71000 17000 -26000 76000 -149000 81000 -188000 31000 -155000zm2172000 2877000c46000,-111000 156000,-199000 287000,-214000l130000 11000c126000,40000 228000,148000 235000,289000l-49000 208000c-37000,58000 -95000,111000 -166000,140000 -26000,10000 -53000,17000 -82000,19000 -188000,20000 -358000,-110000 -378000,-298000 -6000,-53000 3000,-106000 23000,-155000zm-1095000 -1086000l20000 -30000 80000 -109000 62000 -88000 19000 -49000 33000 40000 47000 126000 -9000 179000 -64000 119000 -38000 71000 -166000 130000 -178000 38000 -116000 -18000 -13000 -2000 -40000 -18000 18000 9000 24000 0 38000 0 89000 -9000 99000 -41000 79000 -60000 51000 -69000 25000 -50000 0 -31000 -16000 11000 -51000 40000 -70000 39000 -67000 40000 -81000 40000 -73000 40000 -45000 28000 -2000 1000 -18000 12000 16000 -17000 15000 -15000 85000 -78000 88000 -90000 104000 -109000 55000 -80000zm-195000 -194000c22000,-102000 29000,-203000 16000,-301000 -18000,-159000 -86000,-298000 -177000,-387000 -89000,-90000 -186000,-130000 -257000,-150000l-108000 -20000 97000 31000c69000,31000 149000,88000 228000,179000 69000,89000 122000,217000 129000,358000 10000,67000 8000,140000 -5000,213000 -13000,77000 -38000,152000 -75000,223000 -46000,93000 -106000,175000 -170000,250000 -31000,39000 -65000,73000 -98000,106000 -99000,91000 -198000,165000 -289000,230000l-27000 18000c-101000,70000 -186000,117000 -245000,150000l-104000 59000c0,0 73000,-52000 170000,-119000 53000,-33000 117000,-77000 186000,-128000 75000,-57000 159000,-122000 241000,-199000 44000,-46000 90000,-97000 132000,-151000 96000,-128000 175000,-280000 195000,-444000 4000,-24000 7000,-48000 7000,-69000 8000,-97000 -5000,-192000 -38000,-278000 -48000,-110000 -128000,-201000 -237000,-248000 -93000,-57000 -196000,-70000 -291000,-37000l-16000 7000c-101000,50000 -186000,126000 -219000,227000 -24000,82000 -20000,177000 5000,252000 6000,16000 11000,31000 19000,46000l94000 69000 125000 87000 204000 -89000 22000 -177000 -89000 -108000 -48000 -20000 48000 9000 125000 90000c50000,60000 81000,159000 30000,268000 -35000,71000 -99000,132000 -188000,164000 -37000,13000 -75000,22000 -119000,24000 -139000,11000 -285000,-71000 -376000,-208000 -77000,-111000 -117000,-261000 -101000,-407000 2000,-24000 6000,-46000 11000,-70000 42000,-142000 145000,-281000 276000,-361000 24000,-13000 48000,-26000 71000,-35000 79000,-40000 181000,-62000 278000,-58000 100000,9000 190000,38000 268000,78000 159000,79000 301000,227000 356000,397000 60000,169000 62000,337000 31000,496000 -9000,31000 -18000,62000 -27000,91000 -62000,181000 -166000,325000 -281000,439000 -55000,56000 -112000,104000 -168000,144000 -93000,62000 -181000,111000 -261000,150000 -90000,45000 -170000,78000 -236000,98000 -128000,50000 -197000,68000 -197000,68000l108000 -37000c60000,-31000 158000,-69000 257000,-120000l49000 -26000c99000,-55000 210000,-120000 309000,-212000 35000,-31000 69000,-65000 102000,-102000 75000,-80000 144000,-173000 196000,-274000 27000,-62000 47000,-124000 62000,-186000zm489000 1201000c22000,-7000 44000,-11000 66000,-14000 188000,-20000 357000,108000 376000,288000 7000,51000 0,102000 -17000,148000 -31000,88000 -96000,159000 -180000,197000l-92000 31000c-188000,20000 -356000,-107000 -387000,-286000l9000 -119000c26000,-110000 112000,-206000 225000,-245000zm-1629000 -896000l-11000 -22000 0 -99000 9000 -31000 0 11000 10000 50000 22000 49000 40000 60000 58000 40000 57000 20000 42000 0 22000 0 -13000 -20000 -18000 -31000 -41000 -38000 -40000 -40000 -40000 -40000 -49000 -30000 -31000 -31000 -19000 0 41000 11000 80000 20000 90000 30000 74000 29000 81000 51000 73000 49000 65000 50000 32000 20000 -17000 29000 -80000 60000 -132000 29000 -107000 -29000 -30000 -9000 -120000 -91000 -48000 -97000zm450000 1163000c52000,-75000 135000,-128000 231000,-142000 188000,-30000 356000,98000 387000,288000 10000,119000 -38000,226000 -118000,296000l-37000 18000 -133000 62000c-139000,20000 -278000,-51000 -336000,-159000l-51000 -118000c-13000,-90000 9000,-177000 57000,-245000z"/>
 </g>
</svg>
