<svg xmlns="http://www.w3.org/2000/svg" viewBox="3313.899 70.106 12.601 10.235"><defs><style>.a{fill:#fff;}</style></defs><path class="a" d="M12.6,58.652a5.162,5.162,0,0,1-1.484.407,2.6,2.6,0,0,0,1.136-1.429,5.211,5.211,0,0,1-1.642.628,2.587,2.587,0,0,0-4.4,2.357,7.339,7.339,0,0,1-5.327-2.7,2.588,2.588,0,0,0,.8,3.45,2.585,2.585,0,0,1-1.171-.324v.032a2.587,2.587,0,0,0,2.073,2.535A2.619,2.619,0,0,1,1.9,63.7a2.482,2.482,0,0,1-.487-.048,2.586,2.586,0,0,0,2.414,1.8,5.186,5.186,0,0,1-3.21,1.1A5.49,5.49,0,0,1,0,66.513a7.307,7.307,0,0,0,3.962,1.163,7.3,7.3,0,0,0,7.354-7.354l-.009-.335A5.162,5.162,0,0,0,12.6,58.652Z" transform="translate(3313.898 12.665)"/></svg>