<svg xmlns="http://www.w3.org/2000/svg" viewBox="3284.683 69.373 6.017 11.911"><defs><style>.a{fill:#fff;}</style></defs><g transform="translate(3210.98 61.373)"><path class="a" d="M76.9,6.344H78.2v5.375a.192.192,0,0,0,.192.192h2.214a.192.192,0,0,0,.192-.192V6.369h1.5a.192.192,0,0,0,.191-.17l.228-1.979a.192.192,0,0,0-.191-.214H80.8V2.766c0-.374.2-.564.6-.564h1.13a.192.192,0,0,0,.192-.192V.194A.192.192,0,0,0,82.528,0H80.9a2.985,2.985,0,0,0-1.952.736,2.047,2.047,0,0,0-.681,1.82V4.006H76.9A.192.192,0,0,0,76.7,4.2V6.152A.192.192,0,0,0,76.9,6.344Z" transform="translate(-3 8)"/></g></svg>