<svg xmlns="http://www.w3.org/2000/svg" viewBox="3346 69 11.843 11.952"><defs><style>.a{fill:#fff;}</style></defs><g transform="translate(3336.561 59.643)"><path class="a" d="M91.4,80.326H82.509A1.476,1.476,0,0,0,81.034,81.8v9a1.476,1.476,0,0,0,1.475,1.475H91.4A1.476,1.476,0,0,0,92.877,90.8v-9A1.476,1.476,0,0,0,91.4,80.326ZM91.479,90.8a.078.078,0,0,1-.078.078H82.509a.078.078,0,0,1-.078-.078v-9a.078.078,0,0,1,.078-.078H91.4a.078.078,0,0,1,.078.078Z" transform="translate(-71.595 -70.969)"/><rect class="a" width="1.6" height="1.468" transform="translate(17.398 11.8)"/><circle class="a" cx="1.577" cy="1.577" r="1.577" transform="translate(13.783 14.347)"/><path class="a" d="M116.61,151.532a2.516,2.516,0,1,1-5.032,0l0-1.121h-1.125v4.173h7.276v-4.173h-1.116Z" transform="translate(-98.733 -135.615)"/></g></svg>