<svg xmlns="http://www.w3.org/2000/svg" xmlns:xlink="http://www.w3.org/1999/xlink" viewBox="5321.287 164.6 187.809 31.393"><defs><style>.a{stroke:rgba(0,0,0,0);fill:url(#a);}</style><linearGradient id="a" x1="0.041" y1="0.878" x2="0.041" gradientUnits="objectBoundingBox"><stop offset="0" stop-color="#f9f7c9"/><stop offset="0.627" stop-color="#cbc276"/><stop offset="1" stop-color="#9b8b21"/></linearGradient></defs><path class="a" d="M25.717-29.408,14.827,0H11.033L.369-29.408H4.2L12.346-6.091a13.845,13.845,0,0,1,.595,2.6h.082A12.774,12.774,0,0,1,13.7-6.132L22-29.408ZM42.795,0H39.349V-29.408h3.445ZM59.934,0V-29.408h8.121q15.545,0,15.545,14.335A14.446,14.446,0,0,1,79.283-4.132Q74.966,0,67.727,0Zm3.445-26.291V-3.117h4.389q5.783,0,9-3.1t3.22-8.777q0-11.3-12.018-11.3ZM114.377,0H98.791V-29.408h14.93v3.117H102.237v9.782H112.86v3.1H102.237V-3.117h12.141ZM141.3.492A12.909,12.909,0,0,1,131.281-3.63a15.289,15.289,0,0,1-3.763-10.726q0-7.1,3.835-11.32T141.791-29.9a12.618,12.618,0,0,1,9.813,4.1q3.722,4.1,3.722,10.726,0,7.2-3.814,11.382A13.146,13.146,0,0,1,141.3.492Zm.246-27.275a9.481,9.481,0,0,0-7.526,3.343,12.941,12.941,0,0,0-2.892,8.777,13.032,13.032,0,0,0,2.82,8.747A9.2,9.2,0,0,0,141.3-2.6a9.655,9.655,0,0,0,7.629-3.158q2.789-3.158,2.789-8.839,0-5.824-2.707-9A9.282,9.282,0,0,0,141.545-26.783Zm27.6,25.594V-5.25a7.886,7.886,0,0,0,1.671,1.107,13.541,13.541,0,0,0,2.051.831,16.326,16.326,0,0,0,2.164.523,12.063,12.063,0,0,0,2.01.185,7.872,7.872,0,0,0,4.748-1.179,3.989,3.989,0,0,0,1.569-3.394,3.985,3.985,0,0,0-.523-2.071,5.891,5.891,0,0,0-1.446-1.61,14.346,14.346,0,0,0-2.184-1.395q-1.261-.667-2.717-1.4-1.538-.779-2.871-1.579A12.441,12.441,0,0,1,171.3-17a7.357,7.357,0,0,1-1.548-2.184,6.76,6.76,0,0,1-.564-2.861,6.727,6.727,0,0,1,.882-3.5,7.564,7.564,0,0,1,2.317-2.451,10.506,10.506,0,0,1,3.271-1.436A14.977,14.977,0,0,1,179.4-29.9a14.342,14.342,0,0,1,6.337,1.046v3.876a11.487,11.487,0,0,0-6.686-1.8,11,11,0,0,0-2.256.236,6.372,6.372,0,0,0-2.01.769,4.452,4.452,0,0,0-1.436,1.374,3.647,3.647,0,0,0-.554,2.051,4.222,4.222,0,0,0,.42,1.948,4.775,4.775,0,0,0,1.241,1.5,12.358,12.358,0,0,0,2,1.313q1.179.636,2.717,1.395,1.579.779,2.994,1.641a13.686,13.686,0,0,1,2.481,1.907,8.475,8.475,0,0,1,1.692,2.317,6.514,6.514,0,0,1,.625,2.912,7.385,7.385,0,0,1-.851,3.681,6.985,6.985,0,0,1-2.3,2.451A10.031,10.031,0,0,1,180.484.072a18.251,18.251,0,0,1-3.979.42,16.213,16.213,0,0,1-1.723-.113q-1.025-.113-2.092-.328a17.069,17.069,0,0,1-2.02-.533A6.286,6.286,0,0,1,169.144-1.189Z" transform="translate(5321.631 195)"/></svg>