<svg xmlns="http://www.w3.org/2000/svg" xmlns:xlink="http://www.w3.org/1999/xlink" viewBox="3885.5 157.179 362.485 59.04"><defs><style>.a,.b{stroke:rgba(0,0,0,0);}.a{fill-rule:evenodd;fill:url(#a);}.b{fill:url(#b);}</style><linearGradient id="a" x1="0.06" y1="1.402" x2="0.041" gradientUnits="objectBoundingBox"><stop offset="0" stop-color="#f9f7c9"/><stop offset="0.502" stop-color="#cbc276"/><stop offset="1" stop-color="#9b8b21"/></linearGradient><linearGradient id="b" x1="0.041" y1="0.878" x2="0.041" gradientUnits="objectBoundingBox"><stop offset="0" stop-color="#f9f7c9"/><stop offset="0.627" stop-color="#cbc276"/><stop offset="1" stop-color="#9b8b21"/></linearGradient></defs><g transform="translate(3656.5 11.098)"><path class="a" d="M31.97,7.978l.03-.04-.013.054c-.075.31-.142.622-.213.938s-.138.629-.211.944l-.019.094-.085.35c-.035.163-.07.323-.109.49-.035.141-.067.283-.1.43l-.114.506-.222.931-.008.038-.014.093-.08.336-.035.078-.018.083c-.019.1-.043.2-.067.3l-.1.411-.1.35-.034.155-.059.243-.1.318-.094.338c-.086.307-.174.6-.259.891-.094.307-.187.6-.275.877l-.138.418-.154.445c-.109.312-.211.6-.307.843-.067.179-.128.336-.187.474s-.1.251-.141.347l-.064.144-.075.174.011-.189c0-.07,0-.155.006-.251a2.614,2.614,0,0,1,.026-.272c.014-.222.032-.488.062-.789s.061-.664.1-1.043l.006-.04c.038-.307.082-.635.134-.971.046-.32.1-.654.155-.992l.107-.643.064-.318v-.046l0,.021-.01.026-.078.1-.093.1-.066.034.03-.018.035-.048.043-.1.035-.078V14.3l-.014-.064V14.2l-.035.032-.029.05-.013.021-.037.058-.027.1v.189l.011.08v.018L29,14.7l-.045-.126-.021-.1-.014-.08.014-.192.013-.038L29,14.013l.1-.142.107-.094.05-.029.029.046.066.13.014.139.064-.315.021-.032h-.035l.035-.064v-.112l-.05.016-.05.032-.03.018-.014.014h-.021v.018l-.018.014c-.131.16-.259.309-.382.453l-.291.339-.134.16-.109.123c-.192.216-.376.418-.549.6-.208.227-.4.429-.555.6l-.059.059c-.157.157-.28.283-.358.362l-.142.128,0,.032a1.333,1.333,0,0,0-.066-.221c-.046-.144-.1-.366-.192-.635-.059-.21-.12-.458-.19-.726l-.061-.243c-.11-.387-.213-.829-.325-1.293l0-.024-.03-.128-.051-.219c-.05-.208-.091-.434-.141-.667l-.053-.221-.043-.211-.194-.934c-.038-.166-.075-.339-.107-.512-.024-.125-.045-.253-.062-.379l-.038-.141c-.046-.253-.09-.51-.139-.762l0-.032-.014-.091-.126-.736h-.029l-.021,0L24.6,8.7c-.109.21-.216.414-.33.616l-.067.138c-.094.187-.19.365-.285.544l-.117.206-.118.208-.3.528c-.142.254-.283.5-.421.736l-.029.053c-.138.234-.266.456-.394.675-.1.163-.194.325-.293.482-.042.08-.091.158-.138.237s-.078.13-.114.194l-.325.525-.12.187c-.117.187-.224.36-.326.515-.078.125-.158.238-.227.344-.091.134-.173.248-.24.347-.05.074-.094.138-.126.194l-.142.2a1.9,1.9,0,0,0,.075-.237l.091-.266.12-.357.078-.2c.026-.091.064-.19.1-.293.046-.131.1-.27.149-.421l.16-.418c.1-.256.214-.531.334-.822l.018-.045.093-.254c.077-.17.146-.344.219-.52.1-.242.2-.49.3-.736l.032-.078c.114-.266.234-.531.354-.8l.075-.166c.08-.176.147-.336.222-.509l.056-.12c.061-.131.122-.254.184-.389s.117-.266.181-.4c.12-.259.245-.52.365-.786l.006-.021.371-.757.379-.768.091-.19.291-.584.378-.771.192-.39.045-.08.122.827.2,1.347c.067.45.134.9.194,1.344l.008.069L26,7.984c.034.192.066.379.08.555l.035.3.029.178.008.074c.027.213.045.424.07.637l.032.21c.014.155.032.307.05.459s.032.275.046.411c.021.3.051.579.08.856l.035.368.011.2c.014.226.038.427.053.651l0,.03.011.16.011.176c.021.309.045.61.059.893.008.152.018.3.022.442.01.286.024.541.035.765l.013.248c0,.286,0,.523,0,.667v.206l.075-.157A5.112,5.112,0,0,1,27,15.842l.053-.107c.107-.222.237-.48.39-.766.091-.163.187-.341.293-.525l.11-.219.027-.05c.122-.214.259-.445.4-.678l.234-.386.114-.174.094-.141,0-.006c.094-.139.19-.3.307-.456L29.1,12.2l.069-.117.006-.008c.152-.219.3-.448.456-.682l.307-.461.029-.032.128-.2c.149-.224.3-.456.464-.686l.17-.245.3-.438.47-.686.15-.226Zm-16-7.846L16,0l.05.213c.117.5.242,1,.368,1.51.11.459.222.915.326,1.358l.045.162c.139.552.274,1.069.39,1.536l.042.176c.134.478.259.942.386,1.4l.075.262c.066.254.133.491.19.731l.173.587c.149.506.294.992.435,1.475l.043.149.046.155c.112.365.232.712.334,1.045.043.162.086.315.136.464.038.12.077.235.117.346.048.16.1.318.144.475.1.286.178.555.269.81l.021.062c.072.23.149.45.2.654.126.365.24.694.336.981l.013.05.008.024c.059.181.109.33.158.464l.088.307c.064.189.1.3.1.3a2.245,2.245,0,0,0-.158-.269l-.131-.24a4.192,4.192,0,0,1-.245-.429l-.053-.112c-.109-.178-.216-.376-.331-.592l-.115-.216c-.094-.19-.2-.4-.317-.621-.206-.411-.429-.888-.666-1.378l-.024-.053c-.248-.573-.52-1.206-.782-1.87l-.046-.1-.006-.008c-.128-.333-.269-.683-.4-1.032-.094-.235-.173-.478-.248-.718l-.029-.067-.12-.309c-.162-.456-.314-.933-.462-1.418-.1-.326-.2-.654-.3-.978C15.986,5.034,16,5.144,16,5.126c0,.018.022-.093-.064.162l-.13.429c-.086.294-.174.59-.266.88s-.19.587-.286.87l-.075.216-.149.382-.083.245c-.05.155-.1.314-.168.467-.048.126-.094.251-.144.374-.085.219-.173.432-.248.654l-.056.114-.019.056q-.168.42-.339.818l-.349.8-.1.23-.264.558-.374.776-.029.061c-.11.222-.221.43-.315.621l-.043.082c-.141.269-.266.507-.4.726l-.008.021-.045.091c-.1.16-.168.3-.253.429l-.117.213,0,.006-.006,0a3.045,3.045,0,0,0-.16.272s.035-.1.1-.307l.011-.032.082-.266c.046-.126.094-.3.158-.477l.014-.046.026-.078c.085-.254.182-.547.293-.862l.014-.043c.064-.24.146-.48.222-.731l.038-.1c.078-.224.154-.459.234-.7l.05-.168.093-.307c.056-.178.123-.374.184-.57.024-.082.046-.162.07-.24.067-.2.138-.418.208-.634.04-.134.085-.275.125-.411l.094-.318.046-.158c.085-.29.174-.584.262-.888s.17-.6.251-.9l.026-.1c.08-.237.147-.48.208-.731l.018-.064c.088-.3.17-.6.254-.9l.19-.7.053-.208.23-.917.189-.749.042-.174.226-.923.224-.93Zm8.442,9.53.1-.152.13-.144.022-.014.027-.032.014.014.014.045.035.2v.251l-.026.146-.024.109v.032l-.094.254-.125.222-.131.142-.011.01-.053.04.035-.018.011-.026.032-.07.05-.11.053-.144.026-.142.014-.144V10l-.026.032-.053.078-.029.064-.035.046-.043.144-.035.142v.272l-.014-.064-.01-.053-.032-.141v-.253l.014-.048.027-.238.093-.254Zm4.1,5.222.358.053a.486.486,0,0,1,.2.506.5.5,0,0,1-.091.194.38.38,0,0,1-.411.11l-.1-.064-.027-.018h.123l.2-.173-.014-.125-.094-.08-.224.094a.615.615,0,0,0-.066.4c.006.05.016.1.024.146.024.112.056.219.074.331a2.221,2.221,0,0,1,.067.365l.014.141-.014-.077-.053-.19-.077-.256-.107-.3-.032-.138-.032-.149V15.4l.064-.162.029-.058-.064.029-.109.173-.054.254-.01.032.064.318.123.3.128.234.091.174.053.066-.094-.109-.227-.3A2.1,2.1,0,0,1,28,15.856a.879.879,0,0,1-.04-.373.786.786,0,0,1,.118-.357l.349-.254ZM24.594,11a.554.554,0,0,1,.17-.014l.237.085.142.126a.54.54,0,0,1,.158.411.733.733,0,0,1-.006.088.836.836,0,0,1-.086.309l-.158.222-.067.046a1.562,1.562,0,0,1-.138.123,2.974,2.974,0,0,1-.3.192l-.011.018-.275.19-.082.082-.032.029.027-.032.026-.032.141-.142.053-.046.154-.13.226-.206.011-.014.064-.045L25,12.046l.114-.285-.014-.208-.035-.061v.061l-.043.192-.13.222-.206.222-.021.021-.123.122-.09.077-.2.224-.026.062-.064.128-.01.032h0l-.013.046.013-.046h0l.024-.11.014-.05.17-.3.035-.034.192-.224.109-.126.158-.4-.045-.174-.114-.08H24.59l-.1.1.1.221.094.014h.05l-.144.066-.2-.048-.144-.253.042-.208.078-.126A.434.434,0,0,1,24.594,11Zm-1.062.091a.55.55,0,0,1,.234,0l.221.13.066.1.026.093-.024.2-.018.155-.235.189-.15-.029-.058-.1.029-.13h0l.05-.014-.035.048.014-.016.021.062.045.018.035-.018.05-.094-.035-.16-.08-.046-.093.046-.053.131a.754.754,0,0,0,.19.411,3.923,3.923,0,0,1,.256.41l.035.078.045.208,0,.006-.027.216-.064.11-.035.018.05-.064.05-.208-.014-.078L24,12.7l-.062-.163-.014-.029-.187-.24-.206-.254-.144-.221-.035-.19v-.082l-.029.05V11.6l-.011.2.106.286.09.117.117.154.158.187.05.05.093.2.014.05.021.19-.021.064v-.142l-.043-.162-.093-.125-.1-.109-.272-.254-.222-.272-.042-.171-.051-.211,0-.029a.563.563,0,0,1,.189-.429A.547.547,0,0,1,23.531,11.086Zm4.65,5.766a1.1,1.1,0,0,1,.3.294.989.989,0,0,1,.125.282.959.959,0,0,1-.142.762l-.038.05a.708.708,0,0,1-.563.269.562.562,0,0,1-.494-.3.406.406,0,0,1,.05-.429l.208-.141.078-.018-.078.032-.144.176.03.3.334.128.349-.235v0a.74.74,0,0,0,.032-.488.576.576,0,0,0-.35-.35.541.541,0,0,0-.491.032.771.771,0,0,0-.382.4,1.059,1.059,0,0,0-.061.31,1.12,1.12,0,0,0,.014.245,1.574,1.574,0,0,0,.539.952,4.394,4.394,0,0,0,.667.541c.157.1.269.173.269.173l-.158-.094a3.184,3.184,0,0,1-.4-.237,3.7,3.7,0,0,1-.509-.4,2.373,2.373,0,0,1-.426-.573,1.211,1.211,0,0,1-.13-.7l0-.035a1.093,1.093,0,0,1,.2-.534,1.072,1.072,0,0,1,.213-.2.567.567,0,0,1,.158-.08l.154-.061-.178.032a1.075,1.075,0,0,0-.173.067.966.966,0,0,0-.238.173,1.041,1.041,0,0,0-.261.478.955.955,0,0,0-.026.141,1.521,1.521,0,0,0,.128.776,2.128,2.128,0,0,0,.491.6,2.465,2.465,0,0,0,.555.384,2.155,2.155,0,0,0,.432.187l.155.067s-.106-.035-.317-.1a3.826,3.826,0,0,1-.794-.411,1.977,1.977,0,0,1-.763-1.082,1.634,1.634,0,0,1,.018-.686c.01-.035.021-.07.032-.1a1.148,1.148,0,0,1,.445-.568,1.269,1.269,0,0,1,.131-.072l-.006,0a1.007,1.007,0,0,1,.43-.112.862.862,0,0,1,.443.078Q28.116,16.812,28.181,16.853ZM25.5,14.192a.952.952,0,0,0,.018-.19l-.037-.144V14l-.042.125-.07.208a.966.966,0,0,1-.333.347c-.04.027-.082.05-.123.074-.117.058-.248.11-.386.181a1.577,1.577,0,0,0-.387.2A.928.928,0,0,0,24,15.24a1.434,1.434,0,0,0-.314.424l-.064.11L23.542,16l-.021.142a2.515,2.515,0,0,1,.035-.254l.029-.078.018-.053a1.538,1.538,0,0,1,.3-.5,1.7,1.7,0,0,1,.179-.174,1.8,1.8,0,0,1,.2-.144c.142-.078.306-.16.45-.238l-.006,0,.08-.046a1.2,1.2,0,0,0,.291-.224l.173-.384-.035-.114-.074-.248-.286-.16-.037.014-.3.114-.035.011-.142.286.021.283,0,.021.168.176h.024l.213-.018-.058.05-.1.022-.1.024-.3-.158a.544.544,0,0,1-.126-.389l0-.037v-.085l.128-.346.042-.078a.841.841,0,0,1,.245-.187.745.745,0,0,1,.328-.085l.285.032.286.176.08.064a.939.939,0,0,1,.189.68.876.876,0,0,1-.05.243,1.066,1.066,0,0,1-.237.376.989.989,0,0,1-.3.243c-.072.042-.142.074-.206.109-.176.064-.333.11-.477.168l-.117.07-.234.138-.184.176-.2.234-.062.069-.107.222.043-.128.1-.184.077-.134.014-.014.33-.333c.05-.035.1-.074.152-.106a1.972,1.972,0,0,1,.342-.178c.136-.066.288-.13.422-.208.035-.021.067-.042.1-.064a1.139,1.139,0,0,0,.334-.427A.777.777,0,0,0,25.5,14.192Zm.077,1.221a1.144,1.144,0,0,1,.523.52.8.8,0,0,1,.061.146,1.07,1.07,0,0,1-.064.97l-.01.018a2.192,2.192,0,0,1-.566.594l-.008.008a3.489,3.489,0,0,1-.651.333l-.112.038a3.027,3.027,0,0,1-.938.152h-.07c-.222,0-.338-.014-.338-.014h.218a1.118,1.118,0,0,0,.112.006,3.192,3.192,0,0,0,.443-.038A3.515,3.515,0,0,0,24.7,18c.082-.032.166-.067.248-.106a3.42,3.42,0,0,0,.5-.3,2.118,2.118,0,0,0,.267-.222,1.461,1.461,0,0,0,.28-.39.94.94,0,0,0,.1-.469,1.012,1.012,0,0,0-.33-.744.976.976,0,0,0-.506-.243H25.1l.152.035a.97.97,0,0,1,.462.272,1.03,1.03,0,0,1,.253.68.872.872,0,0,1-.085.36,1.356,1.356,0,0,1-.28.389,2.07,2.07,0,0,1-.258.23,3.127,3.127,0,0,1-.458.275,2.28,2.28,0,0,1-.282.138c-.154.061-.306.107-.446.149a2.529,2.529,0,0,1-.47.093l-.067,0-.224.032s.11-.014.283-.043l.114-.021a3.448,3.448,0,0,0,.771-.254c.059-.029.12-.061.181-.1a2.975,2.975,0,0,0,.53-.346L25.3,17.4a1.567,1.567,0,0,0,.445-.522.972.972,0,0,0,.04-.1.758.758,0,0,0-.022-.549.745.745,0,0,0-.462-.445.843.843,0,0,0-.5.014.685.685,0,0,0-.149.064.718.718,0,0,0-.347.509.329.329,0,0,0-.01.078.521.521,0,0,0,.2.445.492.492,0,0,0,.382.131.322.322,0,0,0,.109-.035.344.344,0,0,0,.226-.365l-.258-.254a.571.571,0,0,0-.379.032l.034-.018.066-.046.3-.046.206.061.187.226-.014.347-.237.286-.04.011-.36.085a.712.712,0,0,1-.429-.142,1.163,1.163,0,0,1-.3-.35,1.068,1.068,0,0,1-.08-.491.908.908,0,0,1,.048-.213,1.822,1.822,0,0,1,.11-.25,1.021,1.021,0,0,1,.365-.365l.043-.026a1.214,1.214,0,0,1,.979-.1A.7.7,0,0,1,25.573,15.413Zm-2.6-2.586.064,0,.062,0a.772.772,0,0,1,.4.141l.173.16a.743.743,0,0,1,.178.523l0,.043v0a.512.512,0,0,1-.347.429.376.376,0,0,1-.429-.082h-.016l-.064-.315.117-.142.064-.032-.1.192.1.176.091.014L23.4,13.9l.043-.061a.371.371,0,0,0-.059-.462l-.306-.125-.286.125-.106.3.006.018.152.33.061.094.2.27.013.034.186.414a1.6,1.6,0,0,1,.08.648v.045a.869.869,0,0,1-.03.192l.021-.126,0-.082-.019-.266a1.8,1.8,0,0,0-.126-.461l-.2-.35-.1-.126-.106-.142-.206-.283-.053-.328-.011-.088.029-.078.128-.208.091-.078-.106.064-.222.269,0,.018v.006a.567.567,0,0,0,.019.482l.194.3.142.158.08.11.2.322c.078.157.125.3.174.424l.038.2.026.136.013.13a2.325,2.325,0,0,0-.048-.24l-.018-.053a2.1,2.1,0,0,0-.218-.5l-.219-.318-.03-.046-.242-.254-.035-.046a1.044,1.044,0,0,1-.266-.541l-.021-.157a.784.784,0,0,1,.067-.246.8.8,0,0,1,.16-.234l.013-.029A.817.817,0,0,1,22.97,12.827Zm4.882,5.994.085-.061.128-.064.13-.061.142-.05.128-.032.066-.016-.038.016-.042.032-.085.05-.058.061-.064.064-.066.064-.034.064-.016.016h.1l.094-.034.093-.064.062-.078.029-.093.024-.066v-.032l.014.066v.142l-.094.19-.192.157-.109.024-.114.026-.208-.05L27.7,19l-.029-.05.043-.032.114-.08ZM15.816,6.87l.075-.286.045-.107.05.107L16,6.648l.022-.064.042-.107.05.107.078.286a2.445,2.445,0,0,1,.062.4l0,.038a3.592,3.592,0,0,1,.03.421,3.923,3.923,0,0,1-.018.462c-.018.082-.029.166-.042.242a.966.966,0,0,1-.035.152l-.078.286-.05.1.014-.046.035-.16.014-.208.011-.208,0-.046-.014-.24-.014-.219L16.078,7.7l-.014-.064L16.05,7.7l-.027.142L16,8.048l-.014-.208-.03-.142-.019-.064-.014.064-.03.142-.014.219v.027l-.021.213.021.254.014.208.03.16.014.046-.045-.1-.082-.283c-.032-.13-.058-.258-.078-.4-.011-.085-.014-.173-.018-.267v-.2a3.856,3.856,0,0,1,.018-.459,2.1,2.1,0,0,1,.082-.4Zm12.646,13.71c0-.067.011-.13.014-.184l.029-.222.024-.1-.243-.03-.442-.078-.354-.064-1.027-.163c-.413-.062-.869-.133-1.368-.2l-.461-.062-.414-.046-.448-.058c-.341-.045-.694-.085-1.061-.117l-.248-.03c-.414-.046-.842-.086-1.278-.118l-.565-.042H20.6c-.219-.024-.443-.038-.666-.05-.262-.018-.53-.029-.8-.046l-.435-.027-.358-.019c-.283-.013-.562-.016-.838-.021l-.368-.013c-.272,0-.544-.008-.819-.014H16c-.275,0-.547.006-.818.013l-.31,0c-.28.013-.552.016-.827.021-.131,0-.262.006-.394.013l-.707.04-.088.006c-.341.011-.68.029-1.016.05l-.445.029a8.025,8.025,0,0,0-.634-1.013l.074-.016c.146-.022.29-.04.435-.067.19-.026.389-.05.587-.067l.443-.04.6-.067c.23-.024.458-.045.683-.061.136-.01.266-.013.4-.018s.23-.01.347-.016l.766-.026.638-.021h.533c.394.011.779.024,1.162.038l.234.008c.254.018.5.016.749.034l.234.019c.35.03.7.067,1.051.109l.243.022c.269.03.534.067.789.1.171.018.336.048.507.08l.05.008c.483.07.954.152,1.406.243.52.1,1.016.213,1.483.326.2.05.406.1.6.152.357.1.693.2,1.008.29.7.213,1.294.414,1.75.59l.021.008c.318.128.574.237.754.3l.222.1v0l.043.03-.043-.014.014.1.011.222.021.3.043.672c0,.166.011.344.029.546l.006.088v.19l0,.253c.013.2.018.41.014.64v.027c-.128.018-.28.014-.472.032l-.317.014-.259.018h-.011c-.331.018-.7.032-1.093.046H26.49c-.354.014-.722.038-1.1.056l-.184.008c-.173,0-.363,0-.555.018l-.382.01c-.31.008-.626.011-.95.019l-.181.006c-.371.011-.744.021-1.13.024l-.4,0c-.176,0-.36.014-.541.016h-.2c-.378,0-.752,0-1.134.016H18.4c-.328,0-.658,0-.987,0-.262,0-.53-.006-.789-.013l-.386,0-.234,0c-.208,0-.406,0-.619,0l-.3.006c-.382.006-.762.01-1.144.01h-.784c-.131,0-.256,0-.386-.006-.166-.006-.33-.011-.5-.01l-.662,0c-.222,0-.445-.006-.669-.014H10.4l-1.15-.034-.565-.014c-.21,0-.418,0-.622-.008l-.712-.024c-.163-.014-.318-.018-.482-.018l-.07,0c-.4-.014-.781-.043-1.146-.058l-.134-.006H5.491A7.022,7.022,0,0,1,4.1,22.821c-.413-.152-.749-.31-.749-.392v-.254l.006-.09.008-.1c0-.254.021-.448.032-.637l.016-.36c.011-.248.022-.456.037-.61l.014-.222.014-.094h-.05l.05-.018v0l.1-.04.118-.053c.165-.058.406-.163.7-.28l.046-.021c.234-.088.5-.187.8-.29.266-.09.558-.184.87-.28.283-.085.582-.176.9-.262l.206-.056c.232-.061.467-.12.714-.178.3-.074.622-.144.949-.211s.634-.128.965-.187c.3-.054.6-.107.914-.154a8.452,8.452,0,0,1,.64,1.013h-.021l-.61.056-1.058.1-.43.042c-.21.026-.418.046-.622.069-.3.034-.6.066-.882.1l-.146.024-.269.04-.75.1c-.363.05-.7.1-1.011.142-.374.059-.71.112-1,.162l-.094.014c-.333.061-.6.107-.792.122l-.1.024-.133.026.016.094.029.224c.014.2.058.462.1.816l.014.152c.018.174.053.379.067.619l.059.517.018.149.12-.014.125-.014.12-.021h.05l.064-.011h.126c.178-.018.373-.032.578-.046.173-.013.354-.024.534-.038l.187-.011.365-.021.494-.027c.19-.014.4-.019.6-.029l.046,0c.342-.022.7-.04,1.061-.053l.414-.011c.229-.011.459-.024.693-.032.336-.014.675-.029,1.019-.046h.093c.126,0,.246,0,.368-.014.25,0,.5-.006.76-.014l.669-.018c.149-.01.3-.016.459-.016s.277,0,.414,0a4.33,4.33,0,0,1,.445-.016l.27,0c.378-.01.757-.013,1.138-.018l.464-.01h1.078l.782.018c.365.01.728.014,1.093.014l.091.01c.114.006.23.006.352.006.269,0,.555.011.824.014l.05,0,1.149.034.28.013c.158,0,.307.014.462.018l.454.014c.41.014.81.035,1.2.046h.051c.4.027.789.038,1.166.061l.31.018c.224.018.45.018.651.032l.262.016.6.029.187.021.456.032c.23.011.453.026.658.043l.128.021h.109l.128.011.242.046v-.011l.045-.3v-.061l.014-.112.014-.189c.01-.138.024-.266.038-.381.008-.086.021-.166.026-.238C28.4,21.053,28.438,20.787,28.462,20.581Zm-2.4-2.379.034-.043.045.075.053.1.026.046.128.176.144.174.142.176.144.142.142.128.05.048-.029-.014-.088-.051-.1-.064-.13-.061-.107-.064L26.4,18.9l-.08-.048-.035-.032v.046l.05.08.08.114.142.093.144.066.139.014h.1l.029-.014-.064.032-.206.032-.286-.064-.272-.208-.158-.3v-.286l.064-.2Zm-.419-.418.147-.069.242-.112.094-.032-.03.093-.128.24-.1.106-.173.178-.376.222-.158.042-.272.069h-.386l-.262-.078-.1-.046.053.014.141.032.2.018.219-.032.222-.064.07-.032.1-.045.13-.078.035-.032h-.05l-.144.032-.17.026h-.008l-.2.053-.229.03-.171.029-.141.032-.053.018.1-.05.237-.078.312-.123.042-.018c.134-.053.226-.085.309-.126s.194-.078.349-.142ZM16.87,9.074l.117.021.142.1.077.064a.78.78,0,0,1,.2.354.772.772,0,0,1,.018.109V9.87l-.014.08-.08.224-.234.275-.038.043-.3.144a1.036,1.036,0,0,0-.376.2l-.018.034-.062.107.03-.09.022-.03.12-.146.3-.16.246-.184.093-.07.155-.333.014-.048V9.9l-.078-.362L17.1,9.413l-.078-.048-.035-.032-.05-.014.05.046L17,9.378l.088.117.043.09.013.3-.013.062-.014.032L17,10.2l-.075.066-.208.174-.286.208-.1.187-.027.053v.09l-.019-.043.029-.117.006-.027.107-.189.2-.19a1.232,1.232,0,0,0,.23-.2.7.7,0,0,0,.123-.2L17,9.92l-.011-.192-.093-.176-.179-.075-.187.064-.082.258-.032.1.078.08h.194l.09-.126-.032.194-.019.022a.29.29,0,0,1-.3.1l-.206-.11a.52.52,0,0,1-.158-.381.565.565,0,0,1,.046-.218.7.7,0,0,1,.144-.211.668.668,0,0,1,.461-.208Zm10.3,11.37a.541.541,0,0,1,.259-.03.549.549,0,0,1,.466.621l-.035.1-.032.093a.572.572,0,0,1-.555.251l-.254-.125a.513.513,0,0,1,.152-.906Zm-3.622-3.6,0,0-.035-.078-.014-.03.05.064.093.126.035.053.08.1.093.176.114.19.078.174.066.144.026.064-.075.014-.173-.032-.229-.11-.186-.222-.094-.269.014-.258.08-.155.008-.019.021-.045-.014.03,0,.016-.011.062-.014.128.014.144.064.125.064.1.058.064.035.016v-.032l-.014-.094-.021-.1-.029-.126-.05-.114Zm-.824-.818a.7.7,0,0,0-.01-.216.6.6,0,0,0-.318-.477.709.709,0,0,0-.435-.061.817.817,0,0,0-.117.027l-.035.019a.725.725,0,0,0-.419.4l-.024.032-.027.061a1.214,1.214,0,0,0-.051.576,1.666,1.666,0,0,0,.528.949l.109.115a6.043,6.043,0,0,0,.79.539c.194.094.336.173.336.173l-.192-.093c-.11-.05-.262-.13-.462-.222a5.429,5.429,0,0,1-.478-.315c-.042-.032-.082-.064-.123-.1l-.032-.048a2.126,2.126,0,0,1-.266-.27,1.755,1.755,0,0,1-.21-.334A1.386,1.386,0,0,1,21.141,16l.018-.062a1.171,1.171,0,0,1,.061-.248,1.317,1.317,0,0,1,.194-.341,1.174,1.174,0,0,1,.374-.25l.054-.019.194-.032h-.211l-.069.019a1.227,1.227,0,0,0-.406.234,1.015,1.015,0,0,0-.219.3,1.12,1.12,0,0,0-.109.381L21,16.1a1.417,1.417,0,0,0,.1.619,1.149,1.149,0,0,0,.061.126,2.117,2.117,0,0,0,.512.651l.043.032a2.411,2.411,0,0,0,.531.33l.12.05a2.232,2.232,0,0,0,.491.187l.19.067-.366-.093c-.1-.035-.216-.074-.35-.126a3.071,3.071,0,0,1-.566-.29l-.142-.11a1.8,1.8,0,0,1-.366-.365,1.709,1.709,0,0,1-.347-.646l-.014-.067-.021-.206a1.481,1.481,0,0,1,.1-.685l.042-.085.053-.107.171-.2a.9.9,0,0,1,.368-.258l.045-.014.064-.032a1.154,1.154,0,0,1,.686,0l.2.1a.96.96,0,0,1,.5.792l-.037.4a1.292,1.292,0,0,1-.048.162,1.451,1.451,0,0,1-.122.251l-.3.266-.173.043-.213.053h-.016l-.315-.128-.178-.251-.014-.269.061-.074.082-.1.272-.078.093.032-.093-.018-.222.128-.011.158-.01.16a.352.352,0,0,0,.349.19l.014,0A.511.511,0,0,0,22.6,16.4,1.013,1.013,0,0,0,22.722,16.026Zm-5.253-5.211a.983.983,0,0,1,.467.266,1.078,1.078,0,0,1,.269.462,1.056,1.056,0,0,1-.1.822l-.088.141L18,12.523a1.532,1.532,0,0,1-.539.365l-.155.062c-.123.046-.23.082-.333.128l-.021,0a1.758,1.758,0,0,0-.414.259.839.839,0,0,0-.152.166l-.1.19-.014.078.014-.046.019-.11.211-.3.021-.032a1.539,1.539,0,0,1,.4-.254l.078-.046c.07-.03.149-.062.226-.1a3.455,3.455,0,0,0,.39-.2.878.878,0,0,0,.283-.275A.865.865,0,0,0,18,12.269l.062-.157A.962.962,0,0,0,18,11.493a1.06,1.06,0,0,0-.266-.336l-.142-.066.106.1a.61.61,0,0,1,.221.333,1.1,1.1,0,0,1,.024.555l-.053.11c-.024.04-.05.078-.075.117a1,1,0,0,1-.258.248,3.562,3.562,0,0,1-.421.226c-.059.029-.12.058-.178.09l-.053.035a1.3,1.3,0,0,0-.427.331l-.014.029-.178.354-.014.11V13.7l.029-.222a.821.821,0,0,1,.128-.245,1.466,1.466,0,0,1,.414-.374l.045-.029c.058-.035.123-.07.189-.106a1.7,1.7,0,0,0,.608-.453l.032-.058.045-.082a.7.7,0,0,0-.13-.731.6.6,0,0,0-.426-.192.5.5,0,0,0-.368.134l-.024.022-.157.4.171.333.314.05.142-.208-.064-.19-.043-.05.034.016.045.018.053.078.078.114-.053.237-.114.128-.173.078-.061.013-.29-.059a.421.421,0,0,1-.078-.053.669.669,0,0,1-.152-.149.68.68,0,0,1-.134-.323.857.857,0,0,1,.174-.682l.048-.054a.891.891,0,0,1,.651-.278A.961.961,0,0,1,17.469,10.814ZM16.022,8.762,16,8.554l-.014.208-.03.16-.019.046.05-.1L16,8.808l.022.064.042.1-.014-.046Zm9.725,11.424.062.006a.546.546,0,0,1,.461.411l.01.109,0,.082a.557.557,0,0,1-.611.459h-.006l-.138-.048a.547.547,0,0,1-.32-.408.566.566,0,0,1,0-.147A.54.54,0,0,1,25.747,20.186Zm-3.224-3.2.035-.035.154-.11.182-.091.17-.085.142-.026.064-.018-.029.018-.064.026-.077.067-.1.064-.078.094-.064.061-.042.064-.022.032h.037l.077-.014.093-.05.115-.061.078-.1.05-.094.029-.078v.032l-.029.176-.1.186-.187.162-.144.067-.1.043-.221.014-.155-.046-.064-.032.05-.046.093-.114Zm-7.053-7h.035l.088-.08-.114-.362-.194-.064-.171.075-.03.046L15,9.728V9.92l.016.1a.944.944,0,0,0,.347.394l.206.194.115.189.029.144-.014.043v-.09l-.13-.24-.283-.208L15,10.2l-.122-.221V9.95l-.021-.062.021-.315.043-.078.024-.035L15,9.378l.021-.013.045-.046-.045.014-.035.018-.078.062-.006,0-.1.123-.085.362V9.92l.021.048.158.333.336.254.3.16.142.176.027.09-.08-.141a1.078,1.078,0,0,0-.376-.206l-.307-.141-.266-.318-.078-.224-.021-.08V9.7a.739.739,0,0,1,.2-.416l.032-.029.059-.064.163-.1.262-.048a.66.66,0,0,1,.462.208.692.692,0,0,1,.19.429.512.512,0,0,1-.158.381l-.149.075-.074.035a.285.285,0,0,1-.3-.128l-.029-.19.093.126Zm3.72,4.837A1.582,1.582,0,0,0,19,14.3l-.032-.043a1.4,1.4,0,0,0-.363-.418l-.051-.03a1.4,1.4,0,0,0-.459-.2.912.912,0,0,0-.158-.027,1.585,1.585,0,0,0-.651.085l-.184.1-.078.045.078-.03.2-.078a1.429,1.429,0,0,1,.734-.026l.046.011.4.208a1.386,1.386,0,0,1,.4.458l.011.018a1.414,1.414,0,0,1,.109.262,1.72,1.72,0,0,1,.024.957l-.066.157-.019.053a2.122,2.122,0,0,1-.41.666,2.283,2.283,0,0,1-.176.176l-.114.078a2.77,2.77,0,0,1-.362.251,2.87,2.87,0,0,1-.48.226,2.775,2.775,0,0,1-.333.117c-.163.046-.309.072-.426.1l-.251.032-.05.018.05-.018.09-.014c.1-.016.24-.05.413-.094l.155-.046a3.667,3.667,0,0,0,.8-.354,3.185,3.185,0,0,0,.336-.24l.286-.283,0,0,.2-.264.088-.174a1.555,1.555,0,0,0,.126-.3,1.573,1.573,0,0,0,.067-.686,2.025,2.025,0,0,0-.187-.542l-.2-.237-.09-.114L18.4,14.04,18.349,14a1.087,1.087,0,0,0-.842-.144,1.175,1.175,0,0,0-.33.117,1,1,0,0,0-.448.47,1.441,1.441,0,0,0-.054.179,1.3,1.3,0,0,0,.1.806l.246.266.078.078.328.128.093.018a.717.717,0,0,0,.392-.067.678.678,0,0,0,.306-.28A.55.55,0,0,0,18.208,15l-.006-.008-.061-.088-.082-.053-.166-.1-.158-.018-.117.032a.531.531,0,0,0-.309.221l-.038.109-.014.035v-.035l.029-.106a.635.635,0,0,1,.307-.322l.234-.046h.082l.365.158.064.1.155.3a.49.49,0,0,1,.027.131.848.848,0,0,1-.059.378,1.027,1.027,0,0,1-.326.387l-.038.024a.974.974,0,0,1-.581.158l-.307-.048-.173-.072-.125-.056-.085-.061a1.7,1.7,0,0,1-.381-.4,1.3,1.3,0,0,1-.075-.149,1.6,1.6,0,0,1-.035-1.186,1.456,1.456,0,0,1,.443-.57.831.831,0,0,1,.08-.058,1.394,1.394,0,0,1,.531-.229l.042-.014a3.079,3.079,0,0,1,.32-.026.871.871,0,0,1,.109.008l.269.032a1.612,1.612,0,0,1,.546.254l.094.078a1.91,1.91,0,0,1,.312.4,1.774,1.774,0,0,1,.254.794l0,.01a2.034,2.034,0,0,1-.018.418,1.857,1.857,0,0,1-.162.56,2.034,2.034,0,0,1-.093.187,2.583,2.583,0,0,1-.386.485,2.152,2.152,0,0,1-.342.275l-.32.206-.01,0a3.642,3.642,0,0,1-.867.286c-.085.018-.163.032-.234.045-.176.018-.314.032-.427.032h-.093l.248-.014c.126-.021.293-.045.478-.088a3.188,3.188,0,0,0,.317-.088,2.82,2.82,0,0,0,.525-.226l.112-.064.379-.251a2.2,2.2,0,0,0,.178-.17,2.274,2.274,0,0,0,.459-.694,1.874,1.874,0,0,0,.082-.248l.01-.077A1.861,1.861,0,0,0,19.19,14.819Zm-3.971-3.941a.723.723,0,0,1,.272.234,1.3,1.3,0,0,1,.074.109.828.828,0,0,1,.1.573.709.709,0,0,1-.243.44.721.721,0,0,1-.117.085l-.286.059-.064-.013-.178-.078-.109-.128-.05-.237.128-.192.08-.034-.066.05-.05.19.144.208.322-.05.035-.07.136-.262-.16-.4a.492.492,0,0,0-.4-.16.628.628,0,0,0-.314.093,1.014,1.014,0,0,0-.117.082.734.734,0,0,0-.12.746l.074.142.035.05a1.119,1.119,0,0,0,.123.123,4.729,4.729,0,0,0,.64.382l.043.032a1.222,1.222,0,0,1,.541.619l.035.216,0,.006v.032l-.008-.046-.014-.064-.19-.4A1.664,1.664,0,0,0,15.1,12.9l-.051-.029c-.091-.05-.184-.093-.275-.138a3.028,3.028,0,0,1-.33-.181.957.957,0,0,1-.328-.379l-.053-.112-.011-.043a1.183,1.183,0,0,1,.026-.5.837.837,0,0,1,.208-.336l.046-.038.082-.074-.1.056-.043.027a.835.835,0,0,0-.272.333.9.9,0,0,0-.082.394,1.651,1.651,0,0,0,.026.226l.056.157a1.13,1.13,0,0,0,.365.416c.208.125.435.2.622.3l.077.05.018.008a1.585,1.585,0,0,1,.386.246l.234.333,0,.043.01.067.022.046-.022-.078-.027-.053-.067-.138a1.254,1.254,0,0,0-.432-.358c-.043-.024-.088-.046-.138-.07l-.019,0c-.141-.064-.3-.114-.491-.194A1.835,1.835,0,0,1,14,12.52l-.09-.155a1.021,1.021,0,0,1-.147-.634,1.048,1.048,0,0,1,.3-.651.728.728,0,0,1,.1-.1,1.027,1.027,0,0,1,.629-.2A.92.92,0,0,1,15.219,10.878Zm8.387,9.48a.5.5,0,0,1,.379-.346L24.173,20a.544.544,0,0,1,.494.587.555.555,0,0,1-.378.45.576.576,0,0,1-.224.027.548.548,0,0,1-.4-.272l-.085-.318A.557.557,0,0,1,23.606,20.358Zm-3.152-3.13-.106-.184-.029-.125-.035-.237.035-.254.043-.1.051.1.128.19v.018l.157.234.208.254.208.238.221.208.144.144.014.014.077.078-.042-.032-.064-.046-.038-.014-.142-.1-.17-.1-.144-.11-.142-.112-.094-.064-.05-.029.014.046.066.11.114.144.157.128.184.112.179.046h.014l.117.014h.042l-.091.018h-.093l-.168-.018-.291-.109-.05-.018-.322-.27Zm-.923-.917.141-.138.206-.206.091-.1-.011.13-.064.3-.117.256-.016.03-.075.107-.339.386-.114.085a1.631,1.631,0,0,1-.33.184,1.421,1.421,0,0,1-.424.126l-.088,0-.213.013-.13-.018h.066l.157-.014.082-.018.141-.032.243-.094.218-.142.15-.138.022-.024.064-.046.05-.064.03-.043-.05.011-.08.05-.064.029-.038.024-.149.09-.219.112-.221.11-.173.082-.021.013-.157.064-.051.032.091-.064.109-.074.149-.1.315-.222.208-.157.142-.109.128-.128.208-.176Zm2.565,3.7a.565.565,0,0,1,.459-.181.543.543,0,0,1,.491.586.533.533,0,0,1-.19.352.541.541,0,0,1-.888-.448A.49.49,0,0,1,22.1,20.008ZM6.5,4.522l.042-.286.043.082.275.565c.2.4.39.8.581,1.2.173.349.342.693.509,1.038l.333.677c.19.4.389.792.558,1.192l.134.3.1.213c.08.173.144.344.222.506.158.365.322.715.459,1.048l.106.261c.142.347.283.674.421.99l.093.256c.1.24.19.47.277.693s.165.421.232.61c.1.269.174.491.254.714l.082.19c.035.1.067.2.1.288.046.141.082.261.107.349.048.142.08.219.08.219l-.144-.187c-.078-.13-.2-.318-.365-.558l-.272-.41c-.086-.136-.184-.285-.283-.446-.142-.208-.28-.443-.443-.7-.08-.144-.17-.286-.269-.445-.208-.35-.445-.747-.669-1.16L9,11.6l-.678-1.182c-.078-.144-.152-.29-.237-.429-.11-.222-.237-.445-.35-.685L7.6,9.056c-.128-.243-.258-.491-.392-.739H7.16l-.043.261c-.032.192-.066.379-.094.566l0,.032-.074.386-.064.374-.038.146c-.024.149-.05.3-.078.443s-.062.3-.1.445l-.1.51-.131.632-.05.221-.018.094L6.243,13l-.05.221-.035.112-.01.035c-.072.333-.146.64-.219.928-.035.126-.069.251-.1.371l-.138.534c-.042.158-.078.3-.117.434l-.138.467-.053.17a1.093,1.093,0,0,0-.058.221v-.032l-.006-.206,0-.267c0-.117,0-.251,0-.4.011-.21.024-.45.035-.718l.011-.3c.011-.243.027-.509.046-.789l.042-.546.014-.173.01-.19.014-.163c.014-.163.029-.322.04-.488l.01-.208.035-.37c.026-.278.054-.555.075-.851l.024-.2c.022-.224.05-.456.075-.675l.029-.2.018-.15c.021-.189.038-.379.062-.566l.019-.174.042-.283,0-.018c.014-.176.05-.368.064-.555l.029-.144.042-.3c.046-.333.1-.666.146-1l.152-1ZM20.666,19.736a.543.543,0,0,1,.256-.038.533.533,0,0,1,.506.573.606.606,0,0,1-.046.176.554.554,0,0,1-.538.315.539.539,0,0,1-.512-.57A.58.58,0,0,1,20.666,19.736Zm-5.472-5.43a1,1,0,0,0-.269-.269,1.173,1.173,0,0,0-.435-.179,1.1,1.1,0,0,0-.789.112l-.05.032-.123.075-.29.368a1.315,1.315,0,0,0-.069.144,1.908,1.908,0,0,0-.123.4,1.5,1.5,0,0,0,.085.718,2.625,2.625,0,0,0,.11.246l.094.192.206.269.282.272a2.915,2.915,0,0,0,.762.464,4.378,4.378,0,0,0,.526.187c.171.046.315.077.418.094l.093.014.05.018-.05-.018-.259-.03c-.181-.046-.432-.107-.718-.206l-.042-.014a2.9,2.9,0,0,1-.838-.477l-.114-.1a2.192,2.192,0,0,1-.587-.827l-.078-.219-.006-.021a1.661,1.661,0,0,1,.078-1.074c.018-.038.035-.077.056-.115l.011-.014a1.408,1.408,0,0,1,.4-.458l.059-.034.333-.174a1.429,1.429,0,0,1,.619-.026.755.755,0,0,1,.16.04l.208.078.078.03-.078-.045-.194-.093a1.561,1.561,0,0,0-.235-.077,1.318,1.318,0,0,0-.573.013,1.337,1.337,0,0,0-.41.16l-.046.029-.053.032a1.467,1.467,0,0,0-.358.427L13,14.3l-.045.075a1.73,1.73,0,0,0-.154,1c.008.05.018.1.026.142l.014.1a2.314,2.314,0,0,0,.715,1.11l.381.254a3.061,3.061,0,0,0,.634.286c.067.024.134.043.2.061.237.062.446.085.594.112l.259.018h-.1c-.11-.014-.251-.018-.429-.048a2.244,2.244,0,0,1-.286-.046,3.024,3.024,0,0,1-.821-.29l-.322-.189a2.673,2.673,0,0,1-.73-.778,1.825,1.825,0,0,1-.254-.73l-.013-.134a2.224,2.224,0,0,1,0-.31,1.76,1.76,0,0,1,.189-.658l.064-.118a1.481,1.481,0,0,1,.322-.4l.091-.078.046-.032a1.506,1.506,0,0,1,.5-.222l.264-.046h.122a1.427,1.427,0,0,1,.307.029l.046.018a1.4,1.4,0,0,1,.6.286,1.423,1.423,0,0,1,.445.57,1.57,1.57,0,0,1,.1.587,1.631,1.631,0,0,1-.211.747.914.914,0,0,1-.078.115,1.894,1.894,0,0,1-.3.28l-.08.064-.3.128-.309.048a.991.991,0,0,1-.95-.587.783.783,0,0,1-.026-.509l.082-.146.077-.141.064-.1.365-.158h.078l.219.046.014,0a.638.638,0,0,1,.3.307l0,.008.035.1v.046l-.014-.046-.035-.094a.641.641,0,0,0-.312-.238l-.117-.018-.155.018-.258.157-.064.1a.527.527,0,0,0-.064.147.579.579,0,0,0,.046.426.734.734,0,0,0,.7.347l.029,0,.064-.013.336-.128.078-.078.2-.245.018-.021a1.19,1.19,0,0,0,.061-.986A.729.729,0,0,0,15.194,14.306ZM19.368,19.6a.533.533,0,0,1,.414.413.5.5,0,0,1,.011.149.542.542,0,0,1-.5.506h-.067a.514.514,0,0,1-.485-.445l-.024-.125v0l.142-.315a.533.533,0,0,1,.43-.19A.713.713,0,0,1,19.368,19.6ZM15.787,16.04,15.8,16v-.144l.011.08v.221l-.114.272-.155.19-.078.064-.123.064-.114.059-.064.032-.307.05-.208-.05-.078-.032.064-.059.163-.11.187-.144H15l.048-.04.146-.12.128-.1.077-.062.2-.142.1-.088.046-.042.066-.046-.024.032-.064.08-.091.11-.078.11-.093.13-.053.061-.035.05-.056.078-.021.034h.035l.091-.048.038-.018.093-.064.106-.125.1-.144Zm.755.643.234.141.067.014.3.05.206-.05.08-.032-.066-.046-.157-.123-.184-.144H17l-.184-.16-.128-.1-.078-.062-.194-.142-.142-.13-.066-.046.021.032.059.08.1.11.078.11.093.13.051.061.029.05.064.078.014.034h-.029l-.094-.048-.035-.018-.093-.064-.114-.125-.094-.144L16.206,16v-.144l-.014.08v.221l.114.272.158.19Zm-.206.778h0Zm.856,2.275a.547.547,0,0,1,.458-.213.522.522,0,0,1,.523.557.539.539,0,0,1-.224.406.55.55,0,0,1-.342.1.56.56,0,0,1-.526-.555A.534.534,0,0,1,17.192,19.736Zm-8.73-8.664a.475.475,0,0,1,.234.12.57.57,0,0,1,.182.288.592.592,0,0,1,.014.138v.032l-.1.382-.222.267-.011.011-.251.242-.1.112-.093.142-.05.162v.142l-.014-.078.006-.07.008-.123.021-.046.093-.19.045-.064.163-.187.09-.122.115-.149.107-.286-.011-.208v-.014l-.029-.064v.078l-.038.19-.141.238-.106.112-.117.128-.171.24-.021.026-.078.24-.014.064.016.074.034.134.043.078-.029-.032-.064-.11-.018-.106-.018-.117.05-.208.029-.061a3.248,3.248,0,0,1,.254-.43l.011-.014a.611.611,0,0,0,.17-.4l-.038-.125-.093-.046-.077.046-.035.157.035.1.042.014.05-.014.014-.048h.014l-.029-.05.053.018V11.7l.026.112-.078.1-.126.032-.131-.106-.1-.085,0-.022-.046-.314.034-.093.066-.114.221-.126A.486.486,0,0,1,8.462,11.072Zm-.806-.8L7.637,10.2l-.03-.046-.035-.064-.043-.078-.035-.032v.128l.014.142.021.144.043.142.066.126.05.082.029.032-.059-.064-.128-.144L7.4,10.365l-.091-.272-.024-.029L7.266,9.88l-.01-.074V9.552l.029-.187.024-.046L7.323,9.3l.027.032.014.018.128.144.144.222.1.266.029.221.014.05v.254l-.043.19-.021.082v-.272l-.029-.157Zm8.154,9.24a.543.543,0,0,1,.19-.035.545.545,0,0,1,.507.725.5.5,0,0,1-.507.339.53.53,0,0,1-.19-1.029Zm-2.062-2.05.146.014h.066l-.13.018-.053,0-.253-.011a1.574,1.574,0,0,1-.427-.13,1.645,1.645,0,0,1-.438-.272l-.336-.382-.078-.107-.128-.286L12.05,16l-.014-.13.094.08.206.224.272.269.208.176.12.128.35.266.037.027.285.2.25.16.1.08-.05-.032-.158-.064-.166-.083-.027-.011-.221-.11-.222-.112-.194-.114-.064-.029-.078-.05-.042-.032.03.05.05.061.064.064.173.162.219.125.242.112.222.05ZM9.078,12.827a1.026,1.026,0,0,1,.437.219l.008.035a.759.759,0,0,1,.213.4.374.374,0,0,1,.014.094l-.019.157a1.182,1.182,0,0,1-.266.538L9.43,14.3l-.014.014-.222.258-.03.032-.227.318-.021.042a3.1,3.1,0,0,0-.219.514,2.307,2.307,0,0,0-.037.237l.014-.128.054-.317a3.251,3.251,0,0,1,.141-.354l.038-.075.206-.333.08-.112.142-.16.187-.3a.564.564,0,0,0,.021-.477v-.018l-.222-.286-.114-.064.1.1.123.208.035.064-.066.43-.178.23-.029.035-.109.142-.1.13-.208.35-.014.034a1.886,1.886,0,0,0-.1.421l-.024.352.014.128a.833.833,0,0,1-.032-.237,1.78,1.78,0,0,1,.082-.651l.024-.053.155-.362.029-.034.192-.269.05-.058.014-.021.144-.368-.1-.3-.286-.128-.3.128a.322.322,0,0,0-.067.088.371.371,0,0,0,.006.373l.05.066.142.032.094-.021.054-.1.038-.07-.093-.19.064.034.114.142-.035.173-.029.142H8.936a.419.419,0,0,1-.443.1.565.565,0,0,1-.328-.443l-.006-.032a.747.747,0,0,1,.12-.467.637.637,0,0,1,.056-.074l.173-.157a.819.819,0,0,1,.4-.147l.061,0A.758.758,0,0,1,9.078,12.827ZM7.216,10.974l.022,0a.477.477,0,0,1,.4.139l.078.126.05.208-.029.05-.115.2-.206.05-.144-.064h.053l.091-.018.093-.221-.093-.094H7.309l-.117.094-.05.16.166.4.283.35.045.027.178.318.014.032,0,.011.026.149-.029-.082-.046-.114,0-.011-.029-.064L7.557,12.4l-.093-.08-.141-.128-.21-.24-.13-.221-.05-.19v-.064l-.026.064-.014.206.035.1.07.186.166.2.064.053.234.222.157.125.051.048.142.142.043.064-.107-.114-.272-.19-.018-.011a2.111,2.111,0,0,1-.438-.318l-.067-.05-.16-.219a.848.848,0,0,1-.1-.371v-.026a.6.6,0,0,1,.16-.414L7,11.045Zm4.352,5.475.024-.038.043-.078.05.1.018.155.011.1-.029.219-.026.128-.208.365-.046.038-.275.23-.35.13-.157.014h-.094l-.1-.014h.163l.006-.01.008-.008.173-.046.194-.094.157-.128.114-.144.03-.061.035-.067.011-.046-.046.032-.045.038-.05.04-.142.1-.144.112-.178.11-.144.08-.029.032-.064.032-.05.032.078-.064.014-.021.006-.011.144-.126.221-.208.2-.242.011-.011.208-.251.154-.24V16.6Zm-.6-.6a1.119,1.119,0,0,0-.312-.565.956.956,0,0,0-.474-.238l-.026,0-.182-.013.187.048.042.011a.849.849,0,0,1,.389.258,1.107,1.107,0,0,1,.189.315,1.129,1.129,0,0,1,.067.272l.014.05a1.386,1.386,0,0,1-.134.771l-.011.019a2.1,2.1,0,0,1-.47.6l-.026.026-.01.008a3.956,3.956,0,0,1-.6.413l-.078.04c-.155.077-.283.144-.379.2l-.194.078a2.973,2.973,0,0,0,.333-.176c.067-.035.141-.075.219-.122a3.793,3.793,0,0,0,.576-.418l.082-.08.029-.032a1.821,1.821,0,0,0,.451-.642,1.17,1.17,0,0,0,.072-.293,1.121,1.121,0,0,0-.075-.654l-.018-.014a.779.779,0,0,0-.427-.414l-.035-.013a.715.715,0,0,0-.555.032.612.612,0,0,0-.178.149.761.761,0,0,0-.141.328.968.968,0,0,0,.115.587.491.491,0,0,0,.394.286.357.357,0,0,0,.35-.176l-.014-.326v-.01l-.018-.008-.2-.1H9.816l.093-.032L10,16.04l.176.053.144.194,0,.07-.01.2-.181.251-.312.114H9.792L9.71,16.9l-.294-.064-.3-.282a1.159,1.159,0,0,1-.176-.414v-.008L8.9,15.746a1.031,1.031,0,0,1,.227-.57A.906.906,0,0,1,9.4,14.95l.2-.093a1.1,1.1,0,0,1,.322-.042,1.265,1.265,0,0,1,.363.056l.061.018a1.293,1.293,0,0,1,.418.269l.173.219.093.178a1.815,1.815,0,0,1,.109.467,1.19,1.19,0,0,1-.01.214l-.021.206a1.623,1.623,0,0,1-.2.5,1.765,1.765,0,0,1-.166.23,1.825,1.825,0,0,1-.358.347l-.03.024-.117.09a3.142,3.142,0,0,1-.627.315c-.112.042-.211.074-.3.1-.221.064-.358.1-.358.1l.187-.064a3.567,3.567,0,0,0,.44-.155l.05-.021a2.342,2.342,0,0,0,.653-.4l.019-.011.027-.018a2.018,2.018,0,0,0,.5-.614l.011-.022A1.3,1.3,0,0,0,11,16.093l-.014-.125C10.978,15.93,10.973,15.888,10.963,15.851Zm2.894,4.019a.528.528,0,0,1,.491-.347.545.545,0,0,1,.57.507.552.552,0,0,1-.368.526.662.662,0,0,1-.149.029.562.562,0,0,1-.578-.523A.636.636,0,0,1,13.858,19.87ZM7.075,13.134l.067-.006a.772.772,0,0,1,.573.283l.05.064.128.363,0,.067,0,.04a.524.524,0,0,1-.128.386l-.3.162-.194-.05L7.206,14.4l.243.016.171-.176.016-.3-.158-.286-.014-.014-.336-.13-.3.155-.08.3-.014.064.17.382a1.242,1.242,0,0,0,.365.269c.141.08.3.158.445.24a1.474,1.474,0,0,1,.379.318,1.952,1.952,0,0,1,.163.222,1.278,1.278,0,0,1,.155.33l.032.082a2.043,2.043,0,0,1,.035.251L8.466,16l-.078-.24-.07-.109A1.508,1.508,0,0,0,8,15.222a1.793,1.793,0,0,0-.523-.3,3.122,3.122,0,0,1-.507-.254.982.982,0,0,1-.331-.35l-.107-.336v-.142l-.035.146a.919.919,0,0,0,.061.365,1.269,1.269,0,0,0,.333.43,3.763,3.763,0,0,0,.523.269,2.224,2.224,0,0,1,.5.283l.336.333.014.032.17.3.053.125L8.363,15.9l-.248-.3-.192-.171-.352-.208c-.142-.064-.3-.11-.475-.174a1.526,1.526,0,0,1-.509-.349A1.026,1.026,0,0,1,6.3,14.08a.939.939,0,0,1,.077-.488.956.956,0,0,1,.117-.2l.078-.064.286-.176Zm5.408,6.52a.523.523,0,0,1,.23-.067.514.514,0,0,1,.429.173l.144.333v.131a.591.591,0,0,1-.066.166.55.55,0,0,1-1.016-.248A.527.527,0,0,1,12.483,19.654ZM8.55,16.9l-.008-.061-.013-.091-.022-.032.05.059.064.174,0,.021.011.219-.093.272-.194.221-.107.056-.112.056-.173.032H7.878l.029-.078.066-.144.04-.093.038-.082.114-.176.093-.176.106-.174.085-.106.018-.022.042-.059-.014.032-.024.07,0,.006-.038.11-.04.11-.024.13-.029.11-.014.078V17.4l.029-.016.064-.062.067-.1.062-.128.014-.144ZM6.934,15.293a1.325,1.325,0,0,1,.637.184,1.1,1.1,0,0,1,.523.824,1.179,1.179,0,0,1,0,.149.982.982,0,0,1-.082.344,1.066,1.066,0,0,1-.3.35l-.043.03A.818.818,0,0,1,7.3,17.3a.677.677,0,0,1-.406-.114L6.651,16.9l-.014-.33.179-.24.008,0,.213-.061.3.064.064.032.029.018a.525.525,0,0,0-.378-.018l-.1.091L6.8,16.6a.377.377,0,0,0,.222.365.441.441,0,0,0,.418-.032.574.574,0,0,0,.072-.05.552.552,0,0,0,.19-.538.7.7,0,0,0-.35-.509.827.827,0,0,0-.648-.078.672.672,0,0,0-.278.17.841.841,0,0,0-.184.274.793.793,0,0,0,.018.653,1.02,1.02,0,0,0,.075.134,2.022,2.022,0,0,0,.37.387c.043.038.086.077.134.112a2.961,2.961,0,0,0,.419.254,3.456,3.456,0,0,0,.954.35c.238.046.4.061.4.061l-.226-.014a5.065,5.065,0,0,1-.541-.11,3.2,3.2,0,0,1-.73-.272L7.1,17.755a3,3,0,0,1-.7-.517,1.321,1.321,0,0,1-.32-.5.8.8,0,0,1-.045-.248,1.056,1.056,0,0,1,.254-.683l.006-.006a1.048,1.048,0,0,1,.458-.266l.158-.032h0l-.163,0a.953.953,0,0,0-.509.237v0a1,1,0,0,0-.333.744v.077a1.241,1.241,0,0,0,.382.779,2.938,2.938,0,0,0,.763.523,2.641,2.641,0,0,0,.286.12,3.93,3.93,0,0,0,.49.134,4.4,4.4,0,0,0,.562.05l.216-.018a2.374,2.374,0,0,1-.411.032,3.791,3.791,0,0,1-.774-.117c-.088-.026-.182-.053-.275-.088a3.539,3.539,0,0,1-.648-.336,2.2,2.2,0,0,1-.59-.619,1.127,1.127,0,0,1-.146-.6.942.942,0,0,1,.085-.362,1.183,1.183,0,0,1,.27-.438,1.065,1.065,0,0,1,.442-.277A1.3,1.3,0,0,1,6.934,15.293ZM.149,8.557C.1,8.342.053,8.133,0,7.923c.11.157.222.312.333.475.262.379.526.746.778,1.114l.16.234c.269.4.523.776.766,1.146l.011.032c.269.379.523.758.779,1.141l.08.126.075.128c.11.158.211.3.3.456l.091.134.008.011.109.162c.221.379.44.744.637,1.075l.136.272c.24.418.435.787.59,1.1l.141.3a5.165,5.165,0,0,1,.245.474l.08.16-.15-.128c-.078-.078-.2-.208-.362-.365-.318-.333-.76-.81-1.267-1.4l-.131-.142c-.222-.254-.442-.526-.675-.81L2.714,13.6H2.7l-.011-.018-.038-.014-.043-.034-.05-.016v.114l.037.061-.022-.014V13.7H2.557l.014.032.064.315L2.65,13.9l.064-.126.038-.046.05.032.106.1L3,14l.064.173.014.189-.014.08-.014.1L3,14.682l-.029.048V14.7l.014-.062v-.192l-.027-.094-.051-.082-.03-.064-.034-.014v.032l-.016.064v.19l.03.1.05.078.029.064.035.016L2.907,14.7,2.816,14.6l-.078-.11L2.7,14.461l.014.032.014.072.05.246c.066.39.13.771.184,1.139q.115.706.194,1.338l.018.141c.054.422.093.811.123,1.15.022.269.04.509.051.707a3.736,3.736,0,0,1,.038.528v.01L3.4,20l-.082-.157c-.018-.048-.04-.1-.067-.162-.04-.093-.09-.2-.139-.33-.155-.379-.346-.9-.565-1.517l-.088-.245c-.139-.442-.291-.923-.443-1.434-.106-.352-.211-.717-.315-1.09l-.091-.318-.046-.187-.05-.211-.1-.365c-.064-.237-.13-.461-.173-.7l-.021-.1L1.2,13.11l-.024-.093-.056-.243-.019-.09c-.088-.389-.184-.778-.275-1.163l-.075-.315c-.08-.3-.138-.6-.2-.92l-.066-.254-.019-.08C.35,9.485.254,9.018.149,8.557Zm9.366,8.76.157-.032.064-.032-.053-.064-.09-.112-.144-.128-.163-.125-.173-.094-.178-.067-.142-.043L8.734,16.6l.029.014.066.032.078.064L9,16.794l.085.077.059.078.05.064.014.032-.029-.014-.08-.018L9,16.966,8.893,16.9l-.08-.1-.05-.091-.029-.078v.026l.029.176.094.192.192.176.237.093Zm1.077,2.755a.567.567,0,0,1,.485-.389.56.56,0,0,1,.59.509.529.529,0,0,1-.411.541.6.6,0,0,1-.1.014.542.542,0,0,1-.589-.494A.572.572,0,0,1,10.592,20.072Zm-1.355-.194a.557.557,0,0,1,.213-.054l0,0a.519.519,0,0,1,.587.475.528.528,0,0,1-.062.307.548.548,0,0,1-.429.28.565.565,0,0,1-.59-.493A.527.527,0,0,1,9.237,19.878ZM7.755,18.41l.059-.014.043-.018-.086.046-.006,0-.272.078H7.114l-.427-.11-.237-.138-.142-.082-.272-.286L5.989,17.8l-.082-.149-.03-.1.094.032.237.112.3.146c.16.061.259.107.354.142a3.257,3.257,0,0,0,.347.138l.322.128.117.048.12.046.093.032-.043-.014L7.7,18.349l-.026,0L7.493,18.3l-.222-.032-.206-.045-.17-.035-.144-.011-.05-.018.05.029.109.08.178.078.219.064.222.032.194-.014ZM3.894,15.72l.014-.07-.064-.3-.109-.155-.064-.046L3.7,15.2l.064.173v.258L3.7,15.92l-.107.286-.085.269,0,.013-.042.174-.014.067.01-.142a.79.79,0,0,1,.018-.13l.046-.235a3.789,3.789,0,0,0,.1-.459.757.757,0,0,0-.032-.346.177.177,0,0,0-.029-.051l-.046-.024-.176-.088-.093.077-.016.142.2.162h.13l-.029.029-.1.067a.373.373,0,0,1-.414-.13.463.463,0,0,1,.091-.662l.022-.018.445-.064.347.254A.855.855,0,0,1,4,15.83L4,15.842a2.013,2.013,0,0,1-.234.491l-.174.24-.046.064-.094.093.045-.067.072-.114.027-.042.122-.238.13-.3Zm3.475,4.6a.573.573,0,0,1,.459-.342L8.037,20a.521.521,0,0,1,.376.462l-.078.333a.583.583,0,0,1-.266.224.449.449,0,0,1-.131.03.542.542,0,0,1-.6-.477A.506.506,0,0,1,7.37,20.323ZM5.618,18.586l.032-.048.128-.174.1-.141.03-.078.053.064.075.2-.014.286-.1.19L5.858,19l-.266.208-.285.061-.186-.029-.021,0-.064-.029.029.014h.1l.142-.014.158-.066.126-.1.082-.11.04-.08v-.05l-.026.018-.082.064-.112.062-.107.064-.13.064-.117.064-.072.045,0,0-.029.019.026-.027.024-.024.136-.125.141-.144.166-.174Zm-.312-.31a1.405,1.405,0,0,0,.026-.482,1.037,1.037,0,0,0-.283-.619.92.92,0,0,0-.411-.24L4.464,16.9l.155.05a1.09,1.09,0,0,1,.365.286,1.037,1.037,0,0,1,.206.573,1.066,1.066,0,0,1-.008.341,1.2,1.2,0,0,1-.12.357,1.957,1.957,0,0,1-.272.4,2.007,2.007,0,0,1-.157.17,4.732,4.732,0,0,1-.462.368l-.043.029a4.482,4.482,0,0,1-.392.24l-.166.094s.117-.083.272-.19c.085-.053.187-.123.3-.2a4.746,4.746,0,0,0,.386-.318,3.17,3.17,0,0,0,.211-.242,1.517,1.517,0,0,0,.312-.71.7.7,0,0,0,.011-.11A1.009,1.009,0,0,0,5,17.589a.742.742,0,0,0-.379-.4.539.539,0,0,0-.466-.059l-.026.011a.654.654,0,0,0-.35.363.7.7,0,0,0,.008.4.593.593,0,0,0,.03.074l.15.11.2.139.326-.142.035-.283-.142-.173L4.309,17.6l.077.014.2.144a.4.4,0,0,1,.048.429.53.53,0,0,1-.3.262.649.649,0,0,1-.19.038.689.689,0,0,1-.6-.333.98.98,0,0,1-.162-.651A.9.9,0,0,1,3.4,17.4a1.049,1.049,0,0,1,.442-.578,1.063,1.063,0,0,1,.114-.056.934.934,0,0,1,.445-.093,1.166,1.166,0,0,1,.429.125,1.139,1.139,0,0,1,.57.635,1.487,1.487,0,0,1,.05.794c-.014.05-.029.1-.043.146a1.816,1.816,0,0,1-.45.7,2.042,2.042,0,0,1-.269.23,3.582,3.582,0,0,1-.418.24,2.491,2.491,0,0,1-.378.157,3.185,3.185,0,0,1-.315.109l.173-.059c.1-.05.253-.11.411-.192l.078-.042a2.46,2.46,0,0,0,.494-.339,1.963,1.963,0,0,0,.163-.163,1.966,1.966,0,0,0,.314-.438A1.8,1.8,0,0,0,5.306,18.275ZM6.088,20.2a.622.622,0,0,1,.106-.022.536.536,0,0,1,.6.461.492.492,0,0,1-.027.237.543.543,0,0,1-.288.315l-.147.05a.563.563,0,0,1-.619-.458l.014-.19A.56.56,0,0,1,6.088,20.2ZM3.482,18.763l-.018-.035V18.57l.014-.05v.018l.016.08.035.078.064.1.093.064.091.032h.1l-.021-.032-.029-.05-.066-.061L3.7,18.682l-.064-.064-.078-.048-.05-.05h-.03l.066.018.128.032.144.048.118.046.13.082.117.078.1.08.051.032-.027.046-.128.1-.211.046L3.8,19.078l-.048-.014-.192-.146Zm.72,1.861a.547.547,0,0,1,.989.234A.562.562,0,0,1,5,21.331l-.059.029-.213.1a.535.535,0,0,1-.538-.254l-.082-.189A.543.543,0,0,1,4.2,20.624Z" transform="translate(359.391 146.2)"/><path class="b" d="M.5-19.1v-2.963H17.085V-19.1H10.335V8.2H7.249V-19.1Zm29.667-2.963H36.2a36.518,36.518,0,0,1,6.832.412,7.8,7.8,0,0,1,4.383,2.647,7.554,7.554,0,0,1,1.687,5,8.078,8.078,0,0,1-1.163,4.347,7.255,7.255,0,0,1-3.323,2.833,15.27,15.27,0,0,1-5.967.979L49.53,8.2H45.788L34.9-5.85h-1.71V8.2H30.167ZM33.191-19.1V-8.813l5.214.041a12.965,12.965,0,0,0,4.483-.576,4.665,4.665,0,0,0,2.267-1.842,5.119,5.119,0,0,0,.814-2.83,4.9,4.9,0,0,0-.824-2.768,4.592,4.592,0,0,0-2.164-1.78A13.151,13.151,0,0,0,38.53-19.1ZM76.5-22.065,90.617,8.2H87.35L82.589-1.755H69.549L64.834,8.2H61.459l14.3-30.269Zm-.382,6.431L70.932-4.677H81.281Zm25.357-6.431h3.48L112.7-9.581l7.623-12.484h3.5l-9.589,15.8V8.2h-2.984V-6.262Zm35.9,0h17.347V-19.1H140.4v9.486h14.2v2.963H140.4V5.241h14.2V8.2H137.379ZM196.7-16.447l-2.387,1.831a13.05,13.05,0,0,0-4.743-3.9,13.878,13.878,0,0,0-6.081-1.327,13.439,13.439,0,0,0-6.708,1.739,12.48,12.48,0,0,0-4.784,4.671,12.921,12.921,0,0,0-1.7,6.595,12.381,12.381,0,0,0,3.8,9.239,13.158,13.158,0,0,0,9.579,3.7,13.469,13.469,0,0,0,10.638-4.98L196.7,2.936a15.255,15.255,0,0,1-5.648,4.455,17.72,17.72,0,0,1-7.562,1.574q-7.943,0-12.532-5.288a15.957,15.957,0,0,1-3.848-10.782,14.993,14.993,0,0,1,4.661-11.184,16.069,16.069,0,0,1,11.678-4.537,17.136,17.136,0,0,1,7.655,1.677A14.858,14.858,0,0,1,196.7-16.447ZM208.318-19.1v-2.963H224.9V-19.1h-6.749V8.2h-3.087V-19.1Zm43.917-3.724a15.7,15.7,0,0,1,11.51,4.589,15.278,15.278,0,0,1,4.633,11.3,15.358,15.358,0,0,1-4.623,11.276,15.327,15.327,0,0,1-11.273,4.63,15.494,15.494,0,0,1-11.366-4.609A15.153,15.153,0,0,1,236.483-6.8a16.128,16.128,0,0,1,2.11-8.087,15.358,15.358,0,0,1,5.755-5.834A15.477,15.477,0,0,1,252.235-22.826Zm.134,2.943A12.47,12.47,0,0,0,246-18.133a12.591,12.591,0,0,0-4.7,4.716,13.112,13.112,0,0,0-1.69,6.61,12.351,12.351,0,0,0,3.741,9.113,12.329,12.329,0,0,0,9.017,3.717,12.949,12.949,0,0,0,6.523-1.709A12.238,12.238,0,0,0,263.57-.361a13.136,13.136,0,0,0,1.68-6.59,12.813,12.813,0,0,0-1.68-6.518,12.544,12.544,0,0,0-4.73-4.664A12.8,12.8,0,0,0,252.369-19.884Zm30.8-2.181H289.2a36.518,36.518,0,0,1,6.832.412,7.8,7.8,0,0,1,4.383,2.647,7.554,7.554,0,0,1,1.687,5,8.078,8.078,0,0,1-1.163,4.347,7.254,7.254,0,0,1-3.323,2.833,15.27,15.27,0,0,1-5.967.979L302.531,8.2h-3.742L287.9-5.85h-1.71V8.2h-3.025Zm3.025,2.963V-8.813l5.214.041a12.965,12.965,0,0,0,4.483-.576,4.665,4.665,0,0,0,2.267-1.842,5.119,5.119,0,0,0,.814-2.83,4.9,4.9,0,0,0-.824-2.768,4.592,4.592,0,0,0-2.164-1.78,13.151,13.151,0,0,0-4.452-.535ZM316.7-22.065h3.025V8.2H316.7Zm30.881,0L361.7,8.2h-3.267l-4.761-9.959h-13.04L335.917,8.2h-3.375l14.3-30.269Zm-.382,6.431L342.016-4.677h10.348Z" transform="translate(229 195.656)"/></g></svg>